<svg xmlns="http://www.w3.org/2000/svg" xmlns:xlink="http://www.w3.org/1999/xlink" width="1004" zoomAndPan="magnify" viewBox="0 0 753 219.75" height="293" preserveAspectRatio="xMidYMid meet" version="1.0"><defs><g/><clipPath id="aebfa52360"><rect x="0" width="397" y="0" height="151"/></clipPath><clipPath id="efaaf67b90"><rect x="0" width="294" y="0" height="151"/></clipPath></defs><g transform="matrix(1, 0, 0, 1, 322, 33)"><g clip-path="url(#aebfa52360)"><g fill="#5170ff" fill-opacity="1"><g transform="translate(1.02073, 118.40317)"><g><path d="M 20.0625 0 C 12.957031 0 9.40625 -3.550781 9.40625 -10.65625 C 9.488281 -16.34375 9.550781 -24.40625 9.59375 -34.84375 C 9.632812 -45.289062 9.65625 -58.957031 9.65625 -75.84375 C 9.65625 -83.195312 13.207031 -86.875 20.3125 -86.875 L 42.875 -86.875 C 50.8125 -86.875 57.117188 -86.097656 61.796875 -84.546875 C 66.484375 -83.003906 69.828125 -80.769531 71.828125 -77.84375 C 73.835938 -74.914062 74.84375 -71.363281 74.84375 -67.1875 C 74.84375 -61.59375 73.484375 -56.914062 70.765625 -53.15625 C 68.046875 -49.394531 64.472656 -46.800781 60.046875 -45.375 L 60.046875 -44.875 C 65.984375 -44.289062 70.328125 -42.285156 73.078125 -38.859375 C 75.835938 -35.429688 77.21875 -31.171875 77.21875 -26.078125 C 77.21875 -21.222656 76.023438 -16.832031 73.640625 -12.90625 C 71.265625 -8.976562 67.734375 -5.84375 63.046875 -3.5 C 58.367188 -1.164062 52.476562 0 45.375 0 Z M 31.71875 -51.90625 L 35.609375 -51.90625 C 42.035156 -51.90625 46.484375 -53.03125 48.953125 -55.28125 C 51.421875 -57.539062 52.65625 -60.21875 52.65625 -63.3125 C 52.65625 -66.3125 51.503906 -68.476562 49.203125 -69.8125 C 46.898438 -71.15625 43.492188 -71.828125 38.984375 -71.828125 L 31.84375 -71.828125 C 31.757812 -69.234375 31.71875 -66.390625 31.71875 -63.296875 C 31.71875 -60.210938 31.71875 -56.414062 31.71875 -51.90625 Z M 31.84375 -14.921875 L 38.984375 -14.921875 C 44.253906 -14.921875 48.328125 -16.066406 51.203125 -18.359375 C 54.085938 -20.660156 55.53125 -23.898438 55.53125 -28.078125 C 55.53125 -31.753906 54.316406 -34.695312 51.890625 -36.90625 C 49.472656 -39.125 45.796875 -40.234375 40.859375 -40.234375 L 31.71875 -40.234375 L 31.71875 -30.71875 C 31.71875 -28.125 31.71875 -25.507812 31.71875 -22.875 C 31.71875 -20.238281 31.757812 -17.585938 31.84375 -14.921875 Z M 31.84375 -14.921875 "/></g></g></g><g fill="#5170ff" fill-opacity="1"><g transform="translate(83.878401, 118.40317)"><g><path d="M 47.140625 -70.328125 C 48.304688 -70.078125 49.515625 -69.445312 50.765625 -68.4375 C 52.023438 -67.4375 53.070312 -65.726562 53.90625 -63.3125 C 54.320312 -61.882812 54.53125 -60.414062 54.53125 -58.90625 C 54.53125 -57.40625 54.320312 -55.945312 53.90625 -54.53125 C 53.070312 -51.269531 51.816406 -49.117188 50.140625 -48.078125 C 48.472656 -47.035156 46.84375 -46.804688 45.25 -47.390625 C 43.664062 -47.890625 41.992188 -48.140625 40.234375 -48.140625 C 34.804688 -48.140625 30.921875 -44.671875 28.578125 -37.734375 L 28.578125 -34.71875 C 28.578125 -33.382812 28.554688 -32.003906 28.515625 -30.578125 C 28.472656 -29.160156 28.453125 -27.785156 28.453125 -26.453125 C 28.453125 -23.859375 28.472656 -21.285156 28.515625 -18.734375 C 28.554688 -16.191406 28.617188 -13.582031 28.703125 -10.90625 C 28.953125 -3.632812 25.484375 0 18.296875 0 L 17.921875 0 C 10.816406 0 7.265625 -3.550781 7.265625 -10.65625 C 7.347656 -14.664062 7.410156 -18.65625 7.453125 -22.625 C 7.492188 -26.59375 7.515625 -30.625 7.515625 -34.71875 C 7.515625 -38.90625 7.492188 -42.960938 7.453125 -46.890625 C 7.410156 -50.816406 7.347656 -54.785156 7.265625 -58.796875 C 7.265625 -65.898438 10.648438 -69.453125 17.421875 -69.453125 C 24.191406 -69.453125 27.578125 -66.773438 27.578125 -61.421875 L 27.578125 -53.28125 L 27.953125 -53.03125 C 28.953125 -58.207031 30.851562 -62.425781 33.65625 -65.6875 C 36.457031 -68.945312 39.90625 -70.578125 44 -70.578125 C 44.664062 -70.578125 45.269531 -70.554688 45.8125 -70.515625 C 46.363281 -70.472656 46.804688 -70.410156 47.140625 -70.328125 Z M 47.140625 -70.328125 "/></g></g></g><g fill="#5170ff" fill-opacity="1"><g transform="translate(138.531871, 118.40317)"><g><path d="M 17.796875 -78.09375 C 13.203125 -78.09375 9.878906 -78.925781 7.828125 -80.59375 C 5.785156 -82.269531 4.765625 -84.988281 4.765625 -88.75 C 4.765625 -92.507812 5.785156 -95.222656 7.828125 -96.890625 C 9.878906 -98.566406 13.203125 -99.40625 17.796875 -99.40625 C 22.484375 -99.40625 25.828125 -98.566406 27.828125 -96.890625 C 29.835938 -95.222656 30.84375 -92.507812 30.84375 -88.75 C 30.84375 -84.988281 29.835938 -82.269531 27.828125 -80.59375 C 25.828125 -78.925781 22.484375 -78.09375 17.796875 -78.09375 Z M 18.171875 0 C 11.066406 0 7.515625 -3.550781 7.515625 -10.65625 L 7.515625 -21.3125 C 7.429688 -30.582031 7.390625 -38.164062 7.390625 -44.0625 C 7.390625 -49.957031 7.347656 -54.867188 7.265625 -58.796875 C 7.265625 -65.816406 10.816406 -69.328125 17.921875 -69.328125 L 18.046875 -69.328125 C 25.148438 -69.328125 28.703125 -65.773438 28.703125 -58.671875 C 28.703125 -54.328125 28.703125 -49.769531 28.703125 -45 C 28.703125 -40.238281 28.660156 -35.9375 28.578125 -32.09375 C 28.492188 -28.5 28.472656 -24.925781 28.515625 -21.375 C 28.554688 -17.820312 28.578125 -14.25 28.578125 -10.65625 C 28.742188 -3.550781 25.273438 0 18.171875 0 Z M 18.171875 0 "/></g></g></g><g fill="#5170ff" fill-opacity="1"><g transform="translate(174.131847, 118.40317)"><g><path d="M 58.171875 -91.390625 C 65.273438 -91.390625 68.828125 -87.835938 68.828125 -80.734375 C 68.742188 -72.546875 68.660156 -64.457031 68.578125 -56.46875 C 68.492188 -48.488281 68.453125 -40.363281 68.453125 -32.09375 C 68.453125 -28.414062 68.472656 -24.820312 68.515625 -21.3125 C 68.554688 -17.800781 68.617188 -14.25 68.703125 -10.65625 C 68.867188 -3.550781 66.023438 0 60.171875 0 C 54.316406 0 50.972656 -1.210938 50.140625 -3.640625 C 49.972656 -4.304688 49.804688 -4.953125 49.640625 -5.578125 C 49.472656 -6.203125 49.304688 -6.804688 49.140625 -7.390625 C 47.472656 -5.140625 45.195312 -3.113281 42.3125 -1.3125 C 39.425781 0.476562 35.851562 1.375 31.59375 1.375 C 26.570312 1.375 22.015625 0.332031 17.921875 -1.75 C 13.828125 -3.84375 10.566406 -7.394531 8.140625 -12.40625 C 5.722656 -17.425781 4.515625 -24.320312 4.515625 -33.09375 C 4.515625 -41.363281 5.703125 -48.253906 8.078125 -53.765625 C 10.460938 -59.285156 13.679688 -63.425781 17.734375 -66.1875 C 21.785156 -68.945312 26.28125 -70.328125 31.21875 -70.328125 C 34.644531 -70.328125 37.710938 -69.488281 40.421875 -67.8125 C 43.140625 -66.144531 45.335938 -63.890625 47.015625 -61.046875 C 46.929688 -64.304688 46.890625 -67.566406 46.890625 -70.828125 C 46.890625 -74.085938 46.847656 -77.390625 46.765625 -80.734375 C 46.765625 -87.835938 50.316406 -91.390625 57.421875 -91.390625 Z M 37.484375 -16.296875 C 39.648438 -16.296875 41.441406 -16.609375 42.859375 -17.234375 C 44.285156 -17.859375 45.546875 -18.800781 46.640625 -20.0625 C 46.640625 -22.0625 46.660156 -24.039062 46.703125 -26 C 46.742188 -27.96875 46.804688 -30 46.890625 -32.09375 C 46.972656 -34.519531 47.015625 -36.941406 47.015625 -39.359375 C 47.015625 -41.785156 47.015625 -44.171875 47.015625 -46.515625 C 46.253906 -49.097656 44.953125 -50.890625 43.109375 -51.890625 C 41.273438 -52.898438 39.234375 -53.40625 36.984375 -53.40625 C 34.804688 -53.40625 32.796875 -52.878906 30.953125 -51.828125 C 29.117188 -50.785156 27.640625 -48.90625 26.515625 -46.1875 C 25.390625 -43.476562 24.828125 -39.53125 24.828125 -34.34375 C 24.828125 -27.738281 25.929688 -23.078125 28.140625 -20.359375 C 30.359375 -17.648438 33.472656 -16.296875 37.484375 -16.296875 Z M 37.484375 -16.296875 "/></g></g></g><g fill="#5170ff" fill-opacity="1"><g transform="translate(249.719114, 118.40317)"><g><path d="M 43.375 -14.171875 C 52.0625 -14.171875 58.847656 -12.789062 63.734375 -10.03125 C 68.628906 -7.269531 71.078125 -2.460938 71.078125 4.390625 C 71.078125 9.066406 69.925781 13.472656 67.625 17.609375 C 65.332031 21.742188 61.550781 25.066406 56.28125 27.578125 C 51.019531 30.085938 43.914062 31.34375 34.96875 31.34375 C 25.445312 31.34375 17.820312 29.546875 12.09375 25.953125 C 6.375 22.359375 3.515625 17.425781 3.515625 11.15625 C 3.515625 7.0625 4.640625 3.988281 6.890625 1.9375 C 9.148438 -0.101562 11.703125 -1.164062 14.546875 -1.25 C 12.367188 -2.257812 10.585938 -3.828125 9.203125 -5.953125 C 7.828125 -8.085938 7.140625 -10.445312 7.140625 -13.03125 C 7.140625 -15.539062 7.847656 -17.859375 9.265625 -19.984375 C 10.691406 -22.117188 12.535156 -23.691406 14.796875 -24.703125 C 7.691406 -28.796875 4.140625 -35.6875 4.140625 -45.375 C 4.140625 -51.726562 5.410156 -56.785156 7.953125 -60.546875 C 10.503906 -64.304688 14.640625 -67.039062 20.359375 -68.75 C 26.085938 -70.46875 33.71875 -71.328125 43.25 -71.328125 C 45.757812 -71.328125 48.453125 -71.265625 51.328125 -71.140625 C 54.210938 -71.015625 57.035156 -70.867188 59.796875 -70.703125 C 63.390625 -70.535156 66.0625 -69.84375 67.8125 -68.625 C 69.570312 -67.414062 70.285156 -65.9375 69.953125 -64.1875 C 69.203125 -60.675781 67.363281 -59.003906 64.4375 -59.171875 C 63.851562 -59.253906 63.179688 -59.296875 62.421875 -59.296875 C 61.671875 -59.296875 60.835938 -59.296875 59.921875 -59.296875 C 61.585938 -57.453125 62.816406 -55.316406 63.609375 -52.890625 C 64.410156 -50.472656 64.8125 -47.175781 64.8125 -43 C 64.8125 -27.957031 54.988281 -20.4375 35.34375 -20.4375 C 33.007812 -20.4375 30.773438 -20.539062 28.640625 -20.75 C 26.515625 -20.957031 24.53125 -21.269531 22.6875 -21.6875 C 22.269531 -21.101562 22.0625 -20.5625 22.0625 -20.0625 C 22.0625 -18.632812 22.582031 -17.484375 23.625 -16.609375 C 24.675781 -15.734375 26.742188 -15.109375 29.828125 -14.734375 C 32.921875 -14.359375 37.4375 -14.171875 43.375 -14.171875 Z M 35.34375 -57.796875 C 31.414062 -57.796875 28.613281 -56.9375 26.9375 -55.21875 C 25.269531 -53.507812 24.4375 -50.4375 24.4375 -46 C 24.4375 -40.820312 25.441406 -37.332031 27.453125 -35.53125 C 29.460938 -33.738281 32.09375 -32.84375 35.34375 -32.84375 C 38.519531 -32.84375 41.066406 -33.738281 42.984375 -35.53125 C 44.910156 -37.332031 45.875 -40.820312 45.875 -46 C 45.875 -50.4375 45.0625 -53.507812 43.4375 -55.21875 C 41.8125 -56.9375 39.113281 -57.796875 35.34375 -57.796875 Z M 36.234375 16.546875 C 43.421875 16.546875 48.328125 16 50.953125 14.90625 C 53.585938 13.820312 54.90625 11.988281 54.90625 9.40625 C 54.90625 6.476562 53.503906 4.742188 50.703125 4.203125 C 47.910156 3.660156 43.546875 3.390625 37.609375 3.390625 C 35.015625 3.390625 32.296875 3.367188 29.453125 3.328125 C 26.617188 3.285156 23.945312 3.097656 21.4375 2.765625 C 19.675781 3.765625 18.796875 5.347656 18.796875 7.515625 C 18.796875 13.535156 24.609375 16.546875 36.234375 16.546875 Z M 36.234375 16.546875 "/></g></g></g><g fill="#5170ff" fill-opacity="1"><g transform="translate(323.050048, 118.40317)"><g><path d="M 36.859375 1.25 C 25.660156 1.25 17.46875 -1.816406 12.28125 -7.953125 C 7.101562 -14.097656 4.515625 -23.359375 4.515625 -35.734375 C 4.515625 -58.878906 15.296875 -70.453125 36.859375 -70.453125 C 44.628906 -70.453125 50.875 -68.820312 55.59375 -65.5625 C 60.3125 -62.300781 63.613281 -57.722656 65.5 -51.828125 C 67.382812 -45.941406 67.90625 -39.113281 67.0625 -31.34375 C 66.894531 -30 66.269531 -29.328125 65.1875 -29.328125 L 25.203125 -29.328125 C 25.367188 -25.066406 25.972656 -21.765625 27.015625 -19.421875 C 28.054688 -17.085938 29.429688 -15.476562 31.140625 -14.59375 C 32.859375 -13.71875 34.804688 -13.28125 36.984375 -13.28125 C 40.242188 -13.28125 42.832031 -13.828125 44.75 -14.921875 C 46.34375 -16.003906 47.578125 -17.046875 48.453125 -18.046875 C 49.328125 -19.054688 50.265625 -19.894531 51.265625 -20.5625 C 52.273438 -21.226562 53.65625 -21.5625 55.40625 -21.5625 C 58.664062 -21.5625 61.253906 -20.742188 63.171875 -19.109375 C 65.097656 -17.484375 65.601562 -15.25 64.6875 -12.40625 C 61.757812 -3.300781 52.484375 1.25 36.859375 1.25 Z M 25.328125 -41.125 L 45.875 -41.125 C 46.039062 -46.132812 45.332031 -49.890625 43.75 -52.390625 C 42.164062 -54.898438 39.535156 -56.15625 35.859375 -56.15625 C 32.597656 -56.15625 30.003906 -54.921875 28.078125 -52.453125 C 26.160156 -49.992188 25.242188 -46.21875 25.328125 -41.125 Z M 25.328125 -41.125 "/></g></g></g></g></g><g transform="matrix(1, 0, 0, 1, 34, 33)"><g clip-path="url(#efaaf67b90)"><g fill="#000000" fill-opacity="1"><g transform="translate(1.089782, 118.40317)"><g><path d="M 70.328125 -78.46875 C 70.328125 -75.800781 69.40625 -73.710938 67.5625 -72.203125 C 65.726562 -70.703125 63.054688 -69.953125 59.546875 -69.953125 C 57.535156 -70.035156 55.609375 -70.078125 53.765625 -70.078125 C 51.929688 -70.078125 50.054688 -70.078125 48.140625 -70.078125 L 48.140625 -43.5 C 48.140625 -37.976562 48.140625 -32.5 48.140625 -27.0625 C 48.140625 -21.632812 48.140625 -16.164062 48.140625 -10.65625 C 48.222656 -7.226562 47.34375 -4.59375 45.5 -2.75 C 43.664062 -0.914062 41.035156 0 37.609375 0 L 35.34375 0 C 28.25 0 24.703125 -3.550781 24.703125 -10.65625 C 24.785156 -16.082031 24.847656 -21.53125 24.890625 -27 C 24.929688 -32.476562 24.953125 -37.976562 24.953125 -43.5 C 24.953125 -47.925781 24.929688 -52.375 24.890625 -56.84375 C 24.847656 -61.320312 24.828125 -65.734375 24.828125 -70.078125 C 23.066406 -70.078125 21.285156 -70.078125 19.484375 -70.078125 C 17.691406 -70.078125 15.835938 -70.035156 13.921875 -69.953125 C 10.410156 -69.953125 7.734375 -70.703125 5.890625 -72.203125 C 4.054688 -73.710938 3.140625 -75.800781 3.140625 -78.46875 C 3.140625 -84.070312 6.691406 -86.875 13.796875 -86.875 L 59.671875 -86.875 C 66.773438 -86.875 70.328125 -84.070312 70.328125 -78.46875 Z M 70.328125 -78.46875 "/></g></g></g><g fill="#000000" fill-opacity="1"><g transform="translate(74.546068, 118.40317)"><g><path d="M 36.859375 1.25 C 25.660156 1.25 17.46875 -1.816406 12.28125 -7.953125 C 7.101562 -14.097656 4.515625 -23.359375 4.515625 -35.734375 C 4.515625 -58.878906 15.296875 -70.453125 36.859375 -70.453125 C 44.628906 -70.453125 50.875 -68.820312 55.59375 -65.5625 C 60.3125 -62.300781 63.613281 -57.722656 65.5 -51.828125 C 67.382812 -45.941406 67.90625 -39.113281 67.0625 -31.34375 C 66.894531 -30 66.269531 -29.328125 65.1875 -29.328125 L 25.203125 -29.328125 C 25.367188 -25.066406 25.972656 -21.765625 27.015625 -19.421875 C 28.054688 -17.085938 29.429688 -15.476562 31.140625 -14.59375 C 32.859375 -13.71875 34.804688 -13.28125 36.984375 -13.28125 C 40.242188 -13.28125 42.832031 -13.828125 44.75 -14.921875 C 46.34375 -16.003906 47.578125 -17.046875 48.453125 -18.046875 C 49.328125 -19.054688 50.265625 -19.894531 51.265625 -20.5625 C 52.273438 -21.226562 53.65625 -21.5625 55.40625 -21.5625 C 58.664062 -21.5625 61.253906 -20.742188 63.171875 -19.109375 C 65.097656 -17.484375 65.601562 -15.25 64.6875 -12.40625 C 61.757812 -3.300781 52.484375 1.25 36.859375 1.25 Z M 25.328125 -41.125 L 45.875 -41.125 C 46.039062 -46.132812 45.332031 -49.890625 43.75 -52.390625 C 42.164062 -54.898438 39.535156 -56.15625 35.859375 -56.15625 C 32.597656 -56.15625 30.003906 -54.921875 28.078125 -52.453125 C 26.160156 -49.992188 25.242188 -46.21875 25.328125 -41.125 Z M 25.328125 -41.125 "/></g></g></g><g fill="#000000" fill-opacity="1"><g transform="translate(146.748824, 118.40317)"><g><path d="M 36.734375 1.25 C 25.617188 1.25 17.46875 -1.710938 12.28125 -7.640625 C 7.101562 -13.578125 4.515625 -22.476562 4.515625 -34.34375 C 4.515625 -58.414062 15.460938 -70.453125 37.359375 -70.453125 C 45.046875 -70.453125 51.125 -68.84375 55.59375 -65.625 C 60.0625 -62.40625 63.007812 -57.742188 64.4375 -51.640625 C 65.269531 -48.140625 64.804688 -45.40625 63.046875 -43.4375 C 61.296875 -41.46875 58.832031 -40.484375 55.65625 -40.484375 C 52.394531 -40.484375 50.117188 -41.296875 48.828125 -42.921875 C 47.535156 -44.554688 46.21875 -46.921875 44.875 -50.015625 C 44.289062 -51.359375 43.367188 -52.320312 42.109375 -52.90625 C 40.859375 -53.488281 39.148438 -53.78125 36.984375 -53.78125 C 32.972656 -53.78125 30.128906 -52.335938 28.453125 -49.453125 C 26.785156 -46.566406 25.953125 -41.53125 25.953125 -34.34375 C 25.953125 -28.914062 26.410156 -24.71875 27.328125 -21.75 C 28.242188 -18.78125 29.535156 -16.753906 31.203125 -15.671875 C 32.878906 -14.585938 34.804688 -14.046875 36.984375 -14.046875 C 40.578125 -14.046875 43.082031 -14.921875 44.5 -16.671875 C 45.84375 -18.515625 46.953125 -20.101562 47.828125 -21.4375 C 48.703125 -22.769531 49.703125 -23.8125 50.828125 -24.5625 C 51.960938 -25.320312 53.570312 -25.703125 55.65625 -25.703125 C 58.664062 -25.703125 61.046875 -24.78125 62.796875 -22.9375 C 64.554688 -21.101562 64.976562 -18.597656 64.0625 -15.421875 C 60.96875 -4.304688 51.859375 1.25 36.734375 1.25 Z M 36.734375 1.25 "/></g></g></g><g fill="#000000" fill-opacity="1"><g transform="translate(216.068495, 118.40317)"><g><path d="M 69.078125 -10.78125 C 69.078125 -3.59375 65.523438 0 58.421875 0 L 58.046875 0 C 50.941406 0 47.390625 -3.59375 47.390625 -10.78125 C 47.472656 -16.550781 47.535156 -22.046875 47.578125 -27.265625 C 47.617188 -32.484375 47.640625 -37.269531 47.640625 -41.625 C 47.640625 -45.71875 46.925781 -48.554688 45.5 -50.140625 C 44.082031 -51.734375 41.953125 -52.488281 39.109375 -52.40625 C 34.179688 -52.238281 30.671875 -49.726562 28.578125 -44.875 C 28.492188 -39.03125 28.472656 -33.285156 28.515625 -27.640625 C 28.554688 -22.003906 28.617188 -16.34375 28.703125 -10.65625 C 28.703125 -3.550781 25.148438 0 18.046875 0 L 17.171875 0 C 10.066406 0 6.515625 -3.550781 6.515625 -10.65625 C 6.597656 -16.675781 6.679688 -22.648438 6.765625 -28.578125 C 6.847656 -34.515625 6.890625 -40.578125 6.890625 -46.765625 C 6.890625 -52.441406 6.847656 -57.992188 6.765625 -63.421875 C 6.679688 -68.859375 6.597656 -74.421875 6.515625 -80.109375 C 6.515625 -87.210938 10.066406 -90.765625 17.171875 -90.765625 L 18.046875 -90.765625 C 25.066406 -90.765625 28.578125 -87.921875 28.578125 -82.234375 C 28.578125 -80.648438 28.578125 -79.125 28.578125 -77.65625 C 28.578125 -76.195312 28.578125 -74.96875 28.578125 -73.96875 C 28.578125 -71.125 28.535156 -68.363281 28.453125 -65.6875 C 28.367188 -63.007812 28.117188 -60.378906 27.703125 -57.796875 L 27.828125 -57.546875 C 30.253906 -61.972656 33.285156 -65.226562 36.921875 -67.3125 C 40.554688 -69.40625 44.796875 -70.453125 49.640625 -70.453125 C 56.242188 -70.453125 61.175781 -68.191406 64.4375 -63.671875 C 67.695312 -59.160156 69.203125 -51.726562 68.953125 -41.375 C 68.867188 -37.019531 68.847656 -32.253906 68.890625 -27.078125 C 68.929688 -21.898438 68.992188 -16.46875 69.078125 -10.78125 Z M 69.078125 -10.78125 "/></g></g></g></g></g></svg>