<svg xmlns="http://www.w3.org/2000/svg" xmlns:xlink="http://www.w3.org/1999/xlink" width="820" zoomAndPan="magnify" viewBox="0 0 615 281.25" height="375" preserveAspectRatio="xMidYMid meet" version="1.0"><defs><clipPath id="26d8e73a19"><path d="M 0.816406 0 L 613.433594 0 L 613.433594 280.503906 L 0.816406 280.503906 Z M 0.816406 0 " clip-rule="nonzero"/></clipPath></defs><g clip-path="url(#26d8e73a19)"><path fill="#000000" d="M 115.589844 194.671875 L 3.339844 194.671875 C 1.960938 194.671875 0.851562 193.535156 0.851562 192.15625 L 0.851562 162.921875 C 0.851562 161.917969 1.699219 161.070312 2.703125 161.101562 C 9.089844 161.285156 13.992188 160.292969 17.382812 158.121094 C 60.5 130.355469 92.832031 88.042969 115.914062 42.039062 C 120.628906 32.628906 123.03125 24.292969 123.113281 17.070312 C 123.167969 11.324219 124.203125 7.519531 126.164062 5.585938 C 131.25 0.527344 137.753906 -0.964844 143.207031 0.609375 C 148.675781 2.1875 153.09375 6.839844 153.976562 14.097656 C 154.460938 18.210938 154.515625 22.195312 154.167969 26.042969 C 154.011719 27.578125 154.476562 29.144531 155.421875 30.375 C 181.253906 63.988281 209.757812 90.0625 250.910156 106.589844 C 295.777344 124.574219 352.035156 117.570312 392.226562 89.914062 C 415.976562 73.570312 436.570312 54.074219 453.980469 31.394531 C 454.859375 30.253906 455.402344 28.910156 455.53125 27.488281 C 456.003906 22.820312 455.664062 17.730469 456.214844 13.25 C 456.632812 9.828125 457.566406 6.761719 459.730469 4.476562 C 461.890625 2.1875 465.285156 0.671875 470.644531 0.394531 C 476.054688 0.117188 479.671875 1.382812 482.117188 3.601562 C 484.558594 5.816406 485.828125 8.992188 486.507812 12.566406 C 487.402344 17.269531 487.28125 22.667969 487.550781 27.445312 C 487.652344 29.226562 488.152344 30.980469 489.039062 32.578125 C 496.910156 46.734375 505.984375 62.074219 516.261719 78.585938 C 533.003906 105.519531 553.707031 129.378906 578.394531 150.191406 C 583.367188 154.378906 588.882812 155.894531 594.527344 156.453125 C 600.226562 157.019531 606.058594 156.617188 611.621094 156.980469 C 612.699219 157.042969 613.558594 157.964844 613.558594 159.039062 L 613.558594 193.175781 C 613.558594 193.9375 612.929688 194.539062 612.167969 194.539062 L 496.328125 194.539062 C 495.144531 194.539062 494.195312 195.558594 494.269531 196.746094 L 499.703125 277.914062 C 499.792969 279.167969 498.8125 280.207031 497.589844 280.207031 L 446.589844 280.207031 C 446.035156 280.207031 445.585938 279.726562 445.625 279.171875 L 451.328125 195.140625 C 451.347656 194.839844 451.117188 194.59375 450.820312 194.59375 L 160.460938 194.59375 C 160.207031 194.59375 159.988281 194.808594 160.003906 195.054688 L 165.546875 277.535156 C 165.609375 278.386719 164.925781 279.109375 164.074219 279.109375 L 112.914062 279.109375 C 112.066406 279.109375 111.378906 278.359375 111.441406 277.511719 L 116.929688 196.101562 L 116.929688 196.09375 C 116.996094 195.316406 116.371094 194.671875 115.589844 194.671875 Z M 488.269531 50.246094 L 492.046875 158.789062 C 492.066406 159.308594 492.5 159.703125 493 159.683594 L 517.011719 158.855469 C 517.511719 158.832031 517.90625 158.441406 517.90625 157.945312 L 517.90625 104.375 C 517.90625 100.566406 516.851562 96.816406 514.84375 93.5625 Z M 284.355469 159.953125 C 284.660156 159.953125 284.890625 159.71875 284.890625 159.414062 L 284.890625 125.070312 C 284.890625 124.820312 284.710938 124.609375 284.460938 124.554688 L 259.382812 119.359375 C 259.042969 119.3125 258.734375 119.5625 258.734375 119.902344 L 258.734375 159.414062 C 258.734375 159.71875 258.96875 159.953125 259.269531 159.953125 Z M 251.882812 159.898438 C 252.191406 159.898438 252.445312 159.644531 252.445312 159.335938 L 252.445312 118 C 252.445312 117.785156 252.320312 117.585938 252.121094 117.496094 L 252.117188 117.492188 L 227.085938 105.632812 L 227.078125 105.628906 C 226.71875 105.449219 226.289062 105.726562 226.289062 106.140625 L 226.289062 159.335938 C 226.289062 159.644531 226.542969 159.898438 226.851562 159.898438 Z M 526.207031 156.011719 C 526.261719 156.078125 526.4375 156.292969 526.664062 156.523438 C 526.890625 156.75 527.109375 156.925781 527.175781 156.980469 C 538.710938 156.792969 554.457031 156.710938 574.421875 156.738281 C 574.613281 156.738281 574.699219 156.503906 574.550781 156.386719 L 574.546875 156.386719 C 565.839844 149.308594 557.453125 141.78125 549.441406 133.746094 C 541.429688 125.734375 533.902344 117.378906 526.855469 108.640625 C 526.792969 108.566406 526.703125 108.542969 526.625 108.570312 C 526.554688 108.59375 526.5 108.664062 526.5 108.765625 C 526.5 128.730469 526.421875 144.480469 526.207031 156.011719 Z M 415.375 159.496094 C 415.734375 159.496094 416.015625 159.210938 416.015625 158.855469 L 416.015625 85.046875 C 416.015625 84.535156 415.445312 84.238281 415.011719 84.519531 L 389.289062 101.867188 C 389.117188 101.976562 389.003906 102.1875 389.003906 102.394531 L 389.003906 158.855469 C 389.003906 159.210938 389.289062 159.496094 389.648438 159.496094 Z M 348.578125 159.710938 C 348.886719 159.710938 349.140625 159.457031 349.140625 159.148438 L 349.140625 120.597656 C 349.140625 120.253906 348.816406 119.984375 348.476562 120.058594 L 348.46875 120.058594 L 323.789062 124.769531 C 323.535156 124.824219 323.335938 125.0625 323.335938 125.335938 L 323.335938 159.148438 C 323.335938 159.457031 323.589844 159.710938 323.898438 159.710938 Z M 381.105469 159.65625 C 381.441406 159.65625 381.722656 159.375 381.722656 159.039062 L 381.722656 107.238281 C 381.722656 106.789062 381.253906 106.492188 380.84375 106.679688 L 356.058594 118.214844 C 355.835938 118.328125 355.699219 118.535156 355.699219 118.777344 L 355.699219 159.039062 C 355.699219 159.375 355.980469 159.65625 356.316406 159.65625 Z M 81.425781 111.152344 C 65.425781 131.011719 48.570312 147.277344 30.804688 159.953125 C 30.609375 160.097656 30.722656 160.40625 30.96875 160.40625 L 82.125 160.40625 C 82.492188 160.40625 82.796875 160.101562 82.796875 159.738281 L 82.796875 111.65625 C 82.796875 110.917969 81.882812 110.578125 81.425781 111.152344 Z M 317.042969 125.949219 C 317.042969 125.511719 316.683594 125.148438 316.242188 125.144531 L 291.878906 125.101562 C 291.4375 125.097656 291.074219 125.460938 291.074219 125.902344 L 291.019531 158.992188 C 291.023438 159.429688 291.382812 159.789062 291.824219 159.796875 L 316.183594 159.839844 C 316.628906 159.839844 316.988281 159.484375 316.988281 159.039062 Z M 455.210938 159.710938 C 455.515625 159.710938 455.769531 159.457031 455.769531 159.148438 L 455.769531 45.691406 C 455.769531 45.183594 455.171875 44.929688 454.808594 45.292969 L 422.472656 77.632812 C 422.359375 77.738281 422.308594 77.886719 422.308594 78.03125 L 422.308594 159.148438 C 422.308594 159.457031 422.5625 159.710938 422.871094 159.710938 Z M 154.035156 42.371094 L 154.035156 159.789062 C 154.035156 160.367188 154.503906 160.835938 155.078125 160.835938 L 181.527344 160.835938 C 182.289062 160.835938 182.894531 160.230469 182.894531 159.46875 L 182.894531 78.113281 C 182.894531 75.375 181.722656 72.769531 179.6875 70.921875 C 169.582031 61.828125 161.019531 52.3125 154.035156 42.371094 Z M 121.375 50.707031 C 112.957031 67.695312 103.34375 83.246094 92.488281 97.308594 C 90.914062 99.375 90.050781 101.917969 90.050781 104.507812 L 90.050781 159.765625 C 90.050781 160.148438 90.363281 160.460938 90.746094 160.460938 L 120.007812 160.460938 C 120.769531 160.460938 121.375 159.832031 121.375 159.066406 Z M 218.875 160.164062 C 219.207031 160.164062 219.460938 159.910156 219.460938 159.578125 L 219.460938 102.285156 C 219.460938 102.082031 219.375 101.898438 219.207031 101.785156 L 219.199219 101.78125 L 190.046875 81.167969 C 189.660156 80.894531 189.132812 81.167969 189.132812 81.644531 L 189.132812 159.578125 C 189.132812 159.910156 189.386719 160.164062 189.71875 160.164062 Z M 218.875 160.164062 " fill-opacity="1" fill-rule="nonzero"/><path fill="#000000" d="M 115.589844 194.671875 L 3.339844 194.671875 C 1.960938 194.671875 0.851562 193.535156 0.851562 192.15625 L 0.851562 162.921875 C 0.851562 161.917969 1.699219 161.070312 2.703125 161.101562 C 9.089844 161.285156 13.992188 160.292969 17.382812 158.121094 C 60.5 130.355469 92.832031 88.042969 115.914062 42.039062 C 120.628906 32.628906 123.03125 24.292969 123.113281 17.070312 C 123.167969 11.324219 124.203125 7.519531 126.164062 5.585938 C 131.25 0.527344 137.753906 -0.964844 143.207031 0.609375 C 148.675781 2.1875 153.09375 6.839844 153.976562 14.097656 C 154.460938 18.210938 154.515625 22.195312 154.167969 26.042969 C 154.011719 27.578125 154.476562 29.144531 155.421875 30.375 C 181.253906 63.988281 209.757812 90.0625 250.910156 106.589844 C 295.777344 124.574219 352.035156 117.570312 392.226562 89.914062 C 415.976562 73.570312 436.570312 54.074219 453.980469 31.394531 C 454.859375 30.253906 455.402344 28.910156 455.53125 27.488281 C 456.003906 22.820312 455.664062 17.730469 456.214844 13.25 C 456.632812 9.828125 457.566406 6.761719 459.730469 4.476562 C 461.890625 2.1875 465.285156 0.671875 470.644531 0.394531 C 476.054688 0.117188 479.671875 1.382812 482.117188 3.601562 C 484.558594 5.816406 485.828125 8.992188 486.507812 12.566406 C 487.402344 17.269531 487.28125 22.667969 487.550781 27.445312 C 487.652344 29.226562 488.152344 30.980469 489.039062 32.578125 C 496.910156 46.734375 505.984375 62.074219 516.261719 78.585938 C 533.003906 105.519531 553.707031 129.378906 578.394531 150.191406 C 583.367188 154.378906 588.882812 155.894531 594.527344 156.453125 C 600.226562 157.019531 606.058594 156.617188 611.621094 156.980469 C 612.699219 157.042969 613.558594 157.964844 613.558594 159.039062 L 613.558594 193.175781 C 613.558594 193.9375 612.929688 194.539062 612.167969 194.539062 L 496.328125 194.539062 C 495.144531 194.539062 494.195312 195.558594 494.269531 196.746094 L 499.703125 277.914062 C 499.792969 279.167969 498.8125 280.207031 497.589844 280.207031 L 446.589844 280.207031 C 446.035156 280.207031 445.585938 279.726562 445.625 279.171875 L 451.328125 195.140625 C 451.347656 194.839844 451.117188 194.59375 450.820312 194.59375 L 160.460938 194.59375 C 160.207031 194.59375 159.988281 194.808594 160.003906 195.054688 L 165.546875 277.535156 C 165.609375 278.386719 164.925781 279.109375 164.074219 279.109375 L 112.914062 279.109375 C 112.066406 279.109375 111.378906 278.359375 111.441406 277.511719 L 116.929688 196.101562 L 116.929688 196.09375 C 116.996094 195.316406 116.371094 194.671875 115.589844 194.671875 Z M 488.269531 50.246094 L 492.046875 158.789062 C 492.066406 159.308594 492.5 159.703125 493 159.683594 L 517.011719 158.855469 C 517.511719 158.832031 517.90625 158.441406 517.90625 157.945312 L 517.90625 104.375 C 517.90625 100.566406 516.851562 96.816406 514.84375 93.5625 Z M 284.355469 159.953125 C 284.660156 159.953125 284.890625 159.71875 284.890625 159.414062 L 284.890625 125.070312 C 284.890625 124.820312 284.710938 124.609375 284.460938 124.554688 L 259.382812 119.359375 C 259.042969 119.3125 258.734375 119.5625 258.734375 119.902344 L 258.734375 159.414062 C 258.734375 159.71875 258.96875 159.953125 259.269531 159.953125 Z M 251.882812 159.898438 C 252.191406 159.898438 252.445312 159.644531 252.445312 159.335938 L 252.445312 118 C 252.445312 117.785156 252.320312 117.585938 252.121094 117.496094 L 252.117188 117.492188 L 227.085938 105.632812 L 227.078125 105.628906 C 226.71875 105.449219 226.289062 105.726562 226.289062 106.140625 L 226.289062 159.335938 C 226.289062 159.644531 226.542969 159.898438 226.851562 159.898438 Z M 526.207031 156.011719 C 526.261719 156.078125 526.4375 156.292969 526.664062 156.523438 C 526.890625 156.75 527.109375 156.925781 527.175781 156.980469 C 538.710938 156.792969 554.457031 156.710938 574.421875 156.738281 C 574.613281 156.738281 574.699219 156.503906 574.550781 156.386719 L 574.546875 156.386719 C 565.839844 149.308594 557.453125 141.78125 549.441406 133.746094 C 541.429688 125.734375 533.902344 117.378906 526.855469 108.640625 C 526.792969 108.566406 526.703125 108.542969 526.625 108.570312 C 526.554688 108.59375 526.5 108.664062 526.5 108.765625 C 526.5 128.730469 526.421875 144.480469 526.207031 156.011719 Z M 415.375 159.496094 C 415.734375 159.496094 416.015625 159.210938 416.015625 158.855469 L 416.015625 85.046875 C 416.015625 84.535156 415.445312 84.238281 415.011719 84.519531 L 389.289062 101.867188 C 389.117188 101.976562 389.003906 102.1875 389.003906 102.394531 L 389.003906 158.855469 C 389.003906 159.210938 389.289062 159.496094 389.648438 159.496094 Z M 348.578125 159.710938 C 348.886719 159.710938 349.140625 159.457031 349.140625 159.148438 L 349.140625 120.597656 C 349.140625 120.253906 348.816406 119.984375 348.476562 120.058594 L 348.46875 120.058594 L 323.789062 124.769531 C 323.535156 124.824219 323.335938 125.0625 323.335938 125.335938 L 323.335938 159.148438 C 323.335938 159.457031 323.589844 159.710938 323.898438 159.710938 Z M 381.105469 159.65625 C 381.441406 159.65625 381.722656 159.375 381.722656 159.039062 L 381.722656 107.238281 C 381.722656 106.789062 381.253906 106.492188 380.84375 106.679688 L 356.058594 118.214844 C 355.835938 118.328125 355.699219 118.535156 355.699219 118.777344 L 355.699219 159.039062 C 355.699219 159.375 355.980469 159.65625 356.316406 159.65625 Z M 81.425781 111.152344 C 65.425781 131.011719 48.570312 147.277344 30.804688 159.953125 C 30.609375 160.097656 30.722656 160.40625 30.96875 160.40625 L 82.125 160.40625 C 82.492188 160.40625 82.796875 160.101562 82.796875 159.738281 L 82.796875 111.65625 C 82.796875 110.917969 81.882812 110.578125 81.425781 111.152344 Z M 317.042969 125.949219 C 317.042969 125.511719 316.683594 125.148438 316.242188 125.144531 L 291.878906 125.101562 C 291.4375 125.097656 291.074219 125.460938 291.074219 125.902344 L 291.019531 158.992188 C 291.023438 159.429688 291.382812 159.789062 291.824219 159.796875 L 316.183594 159.839844 C 316.628906 159.839844 316.988281 159.484375 316.988281 159.039062 Z M 455.210938 159.710938 C 455.515625 159.710938 455.769531 159.457031 455.769531 159.148438 L 455.769531 45.691406 C 455.769531 45.183594 455.171875 44.929688 454.808594 45.292969 L 422.472656 77.632812 C 422.359375 77.738281 422.308594 77.886719 422.308594 78.03125 L 422.308594 159.148438 C 422.308594 159.457031 422.5625 159.710938 422.871094 159.710938 Z M 154.035156 42.371094 L 154.035156 159.789062 C 154.035156 160.367188 154.503906 160.835938 155.078125 160.835938 L 181.527344 160.835938 C 182.289062 160.835938 182.894531 160.230469 182.894531 159.46875 L 182.894531 78.113281 C 182.894531 75.375 181.722656 72.769531 179.6875 70.921875 C 169.582031 61.828125 161.019531 52.3125 154.035156 42.371094 Z M 121.375 50.707031 C 112.957031 67.695312 103.34375 83.246094 92.488281 97.308594 C 90.914062 99.375 90.050781 101.917969 90.050781 104.507812 L 90.050781 159.765625 C 90.050781 160.148438 90.363281 160.460938 90.746094 160.460938 L 120.007812 160.460938 C 120.769531 160.460938 121.375 159.832031 121.375 159.066406 Z M 218.875 160.164062 C 219.207031 160.164062 219.460938 159.910156 219.460938 159.578125 L 219.460938 102.285156 C 219.460938 102.082031 219.375 101.898438 219.207031 101.785156 L 219.199219 101.78125 L 190.046875 81.167969 C 189.660156 80.894531 189.132812 81.167969 189.132812 81.644531 L 189.132812 159.578125 C 189.132812 159.910156 189.386719 160.164062 189.71875 160.164062 Z M 218.875 160.164062 " fill-opacity="1" fill-rule="nonzero"/></g></svg>