<svg xmlns="http://www.w3.org/2000/svg" xmlns:xlink="http://www.w3.org/1999/xlink" width="259" zoomAndPan="magnify" viewBox="0 0 194.25 239.249995" height="319" preserveAspectRatio="xMidYMid meet" version="1.0"><defs><g/></defs><g fill="#000000" fill-opacity="1"><g transform="translate(33.052383, 146.700455)"><g><path d="M 67.0625 -74.828125 C 67.0625 -72.273438 66.179688 -70.28125 64.421875 -68.84375 C 62.671875 -67.414062 60.125 -66.703125 56.78125 -66.703125 C 54.863281 -66.773438 53.03125 -66.8125 51.28125 -66.8125 C 49.53125 -66.8125 47.738281 -66.8125 45.90625 -66.8125 L 45.90625 -41.484375 C 45.90625 -36.222656 45.90625 -31 45.90625 -25.8125 C 45.90625 -20.632812 45.90625 -15.414062 45.90625 -10.15625 C 45.976562 -6.894531 45.140625 -4.382812 43.390625 -2.625 C 41.640625 -0.875 39.128906 0 35.859375 0 L 33.703125 0 C 26.929688 0 23.546875 -3.382812 23.546875 -10.15625 C 23.628906 -15.332031 23.6875 -20.53125 23.71875 -25.75 C 23.757812 -30.976562 23.78125 -36.222656 23.78125 -41.484375 C 23.78125 -45.703125 23.757812 -49.941406 23.71875 -54.203125 C 23.6875 -58.472656 23.671875 -62.675781 23.671875 -66.8125 C 21.992188 -66.8125 20.296875 -66.8125 18.578125 -66.8125 C 16.867188 -66.8125 15.097656 -66.773438 13.265625 -66.703125 C 9.921875 -66.703125 7.367188 -67.414062 5.609375 -68.84375 C 3.859375 -70.28125 2.984375 -72.273438 2.984375 -74.828125 C 2.984375 -80.160156 6.367188 -82.828125 13.140625 -82.828125 L 56.890625 -82.828125 C 63.671875 -82.828125 67.0625 -80.160156 67.0625 -74.828125 Z M 67.0625 -74.828125 "/></g></g></g><g fill="#5170ff" fill-opacity="1"><g transform="translate(80.743608, 174.916523)"><g><path d="M 19.125 0 C 12.351562 0 8.96875 -3.382812 8.96875 -10.15625 C 9.039062 -15.570312 9.097656 -23.257812 9.140625 -33.21875 C 9.179688 -43.1875 9.203125 -56.21875 9.203125 -72.3125 C 9.203125 -79.320312 12.585938 -82.828125 19.359375 -82.828125 L 40.875 -82.828125 C 48.445312 -82.828125 54.460938 -82.085938 58.921875 -80.609375 C 63.390625 -79.140625 66.578125 -77.007812 68.484375 -74.21875 C 70.398438 -71.4375 71.359375 -68.050781 71.359375 -64.0625 C 71.359375 -58.726562 70.0625 -54.265625 67.46875 -50.671875 C 64.882812 -47.085938 61.476562 -44.617188 57.25 -43.265625 L 57.25 -42.796875 C 62.90625 -42.234375 67.046875 -40.316406 69.671875 -37.046875 C 72.304688 -33.785156 73.625 -29.722656 73.625 -24.859375 C 73.625 -20.234375 72.488281 -16.046875 70.21875 -12.296875 C 67.945312 -8.554688 64.582031 -5.570312 60.125 -3.34375 C 55.664062 -1.113281 50.046875 0 43.265625 0 Z M 30.234375 -49.484375 L 33.953125 -49.484375 C 40.085938 -49.484375 44.328125 -50.554688 46.671875 -52.703125 C 49.023438 -54.859375 50.203125 -57.410156 50.203125 -60.359375 C 50.203125 -63.234375 49.101562 -65.304688 46.90625 -66.578125 C 44.71875 -67.847656 41.472656 -68.484375 37.171875 -68.484375 L 30.359375 -68.484375 C 30.273438 -66.015625 30.234375 -63.304688 30.234375 -60.359375 C 30.234375 -57.410156 30.234375 -53.785156 30.234375 -49.484375 Z M 30.359375 -14.21875 L 37.171875 -14.21875 C 42.191406 -14.21875 46.078125 -15.3125 48.828125 -17.5 C 51.578125 -19.695312 52.953125 -22.789062 52.953125 -26.78125 C 52.953125 -30.28125 51.796875 -33.085938 49.484375 -35.203125 C 47.171875 -37.316406 43.664062 -38.375 38.96875 -38.375 L 30.234375 -38.375 L 30.234375 -29.28125 C 30.234375 -26.8125 30.234375 -24.320312 30.234375 -21.8125 C 30.234375 -19.300781 30.273438 -16.769531 30.359375 -14.21875 Z M 30.359375 -14.21875 "/></g></g></g></svg>