<svg xmlns="http://www.w3.org/2000/svg" xmlns:xlink="http://www.w3.org/1999/xlink" width="635" zoomAndPan="magnify" viewBox="0 0 476.25 329.249999" height="439" preserveAspectRatio="xMidYMid meet" version="1.0"><defs><g/><clipPath id="7b0932a5bc"><rect x="0" width="397" y="0" height="151"/></clipPath><clipPath id="9a1dbedb30"><rect x="0" width="294" y="0" height="151"/></clipPath></defs><g transform="matrix(1, 0, 0, 1, 45, 142)"><g clip-path="url(#7b0932a5bc)"><g fill="#5170ff" fill-opacity="1"><g transform="translate(1.103799, 118.26613)"><g><path d="M 20.03125 0 C 12.9375 0 9.390625 -3.546875 9.390625 -10.640625 C 9.472656 -16.316406 9.535156 -24.375 9.578125 -34.8125 C 9.617188 -45.25 9.640625 -58.894531 9.640625 -75.75 C 9.640625 -83.101562 13.1875 -86.78125 20.28125 -86.78125 L 42.828125 -86.78125 C 50.753906 -86.78125 57.054688 -86.003906 61.734375 -84.453125 C 66.410156 -82.910156 69.75 -80.675781 71.75 -77.75 C 73.75 -74.832031 74.75 -71.289062 74.75 -67.125 C 74.75 -61.53125 73.390625 -56.851562 70.671875 -53.09375 C 67.960938 -49.332031 64.398438 -46.742188 59.984375 -45.328125 L 59.984375 -44.828125 C 65.910156 -44.242188 70.25 -42.238281 73 -38.8125 C 75.757812 -35.394531 77.140625 -31.140625 77.140625 -26.046875 C 77.140625 -21.203125 75.945312 -16.816406 73.5625 -12.890625 C 71.1875 -8.972656 67.660156 -5.84375 62.984375 -3.5 C 58.304688 -1.164062 52.421875 0 45.328125 0 Z M 31.6875 -51.84375 L 35.5625 -51.84375 C 41.988281 -51.84375 46.429688 -52.96875 48.890625 -55.21875 C 51.359375 -57.476562 52.59375 -60.148438 52.59375 -63.234375 C 52.59375 -66.242188 51.441406 -68.414062 49.140625 -69.75 C 46.847656 -71.082031 43.445312 -71.75 38.9375 -71.75 L 31.8125 -71.75 C 31.726562 -69.164062 31.6875 -66.328125 31.6875 -63.234375 C 31.6875 -60.148438 31.6875 -56.351562 31.6875 -51.84375 Z M 31.8125 -14.90625 L 38.9375 -14.90625 C 44.195312 -14.90625 48.265625 -16.050781 51.140625 -18.34375 C 54.023438 -20.632812 55.46875 -23.867188 55.46875 -28.046875 C 55.46875 -31.722656 54.253906 -34.664062 51.828125 -36.875 C 49.410156 -39.082031 45.742188 -40.1875 40.828125 -40.1875 L 31.6875 -40.1875 L 31.6875 -30.671875 C 31.6875 -28.085938 31.6875 -25.476562 31.6875 -22.84375 C 31.6875 -20.21875 31.726562 -17.570312 31.8125 -14.90625 Z M 31.8125 -14.90625 "/></g></g></g><g fill="#5170ff" fill-opacity="1"><g transform="translate(83.867206, 118.26613)"><g><path d="M 47.078125 -70.25 C 48.242188 -70 49.453125 -69.367188 50.703125 -68.359375 C 51.960938 -67.359375 53.007812 -65.648438 53.84375 -63.234375 C 54.257812 -61.816406 54.46875 -60.351562 54.46875 -58.84375 C 54.46875 -57.34375 54.257812 -55.882812 53.84375 -54.46875 C 53.007812 -51.21875 51.753906 -49.066406 50.078125 -48.015625 C 48.410156 -46.972656 46.785156 -46.742188 45.203125 -47.328125 C 43.617188 -47.828125 41.945312 -48.078125 40.1875 -48.078125 C 34.769531 -48.078125 30.890625 -44.613281 28.546875 -37.6875 L 28.546875 -34.6875 C 28.546875 -33.351562 28.523438 -31.972656 28.484375 -30.546875 C 28.441406 -29.128906 28.421875 -27.753906 28.421875 -26.421875 C 28.421875 -23.835938 28.441406 -21.269531 28.484375 -18.71875 C 28.523438 -16.175781 28.585938 -13.566406 28.671875 -10.890625 C 28.921875 -3.628906 25.457031 0 18.28125 0 L 17.90625 0 C 10.8125 0 7.265625 -3.546875 7.265625 -10.640625 C 7.347656 -14.648438 7.410156 -18.632812 7.453125 -22.59375 C 7.492188 -26.5625 7.515625 -30.59375 7.515625 -34.6875 C 7.515625 -38.863281 7.492188 -42.910156 7.453125 -46.828125 C 7.410156 -50.753906 7.347656 -54.722656 7.265625 -58.734375 C 7.265625 -65.828125 10.644531 -69.375 17.40625 -69.375 C 24.164062 -69.375 27.546875 -66.703125 27.546875 -61.359375 L 27.546875 -53.21875 L 27.921875 -52.96875 C 28.921875 -58.144531 30.816406 -62.359375 33.609375 -65.609375 C 36.410156 -68.867188 39.859375 -70.5 43.953125 -70.5 C 44.617188 -70.5 45.222656 -70.476562 45.765625 -70.4375 C 46.304688 -70.394531 46.742188 -70.332031 47.078125 -70.25 Z M 47.078125 -70.25 "/></g></g></g><g fill="#5170ff" fill-opacity="1"><g transform="translate(138.458499, 118.26613)"><g><path d="M 17.78125 -78.015625 C 13.1875 -78.015625 9.867188 -78.847656 7.828125 -80.515625 C 5.785156 -82.179688 4.765625 -84.894531 4.765625 -88.65625 C 4.765625 -92.414062 5.785156 -95.128906 7.828125 -96.796875 C 9.867188 -98.460938 13.1875 -99.296875 17.78125 -99.296875 C 22.457031 -99.296875 25.796875 -98.460938 27.796875 -96.796875 C 29.796875 -95.128906 30.796875 -92.414062 30.796875 -88.65625 C 30.796875 -84.894531 29.796875 -82.179688 27.796875 -80.515625 C 25.796875 -78.847656 22.457031 -78.015625 17.78125 -78.015625 Z M 18.15625 0 C 11.0625 0 7.515625 -3.546875 7.515625 -10.640625 L 7.515625 -21.28125 C 7.429688 -30.550781 7.390625 -38.128906 7.390625 -44.015625 C 7.390625 -49.898438 7.347656 -54.804688 7.265625 -58.734375 C 7.265625 -65.742188 10.8125 -69.25 17.90625 -69.25 L 18.03125 -69.25 C 25.125 -69.25 28.671875 -65.703125 28.671875 -58.609375 C 28.671875 -54.265625 28.671875 -49.710938 28.671875 -44.953125 C 28.671875 -40.191406 28.628906 -35.894531 28.546875 -32.0625 C 28.460938 -28.46875 28.441406 -24.894531 28.484375 -21.34375 C 28.523438 -17.800781 28.546875 -14.234375 28.546875 -10.640625 C 28.710938 -3.546875 25.25 0 18.15625 0 Z M 18.15625 0 "/></g></g></g><g fill="#5170ff" fill-opacity="1"><g transform="translate(174.017974, 118.26613)"><g><path d="M 58.09375 -91.28125 C 65.195312 -91.28125 68.75 -87.734375 68.75 -80.640625 C 68.664062 -72.460938 68.582031 -64.382812 68.5 -56.40625 C 68.414062 -48.4375 68.375 -40.320312 68.375 -32.0625 C 68.375 -28.382812 68.394531 -24.789062 68.4375 -21.28125 C 68.476562 -17.78125 68.539062 -14.234375 68.625 -10.640625 C 68.789062 -3.546875 65.953125 0 60.109375 0 C 54.265625 0 50.925781 -1.207031 50.09375 -3.625 C 49.925781 -4.300781 49.757812 -4.953125 49.59375 -5.578125 C 49.425781 -6.203125 49.253906 -6.804688 49.078125 -7.390625 C 47.410156 -5.128906 45.132812 -3.101562 42.25 -1.3125 C 39.375 0.476562 35.8125 1.375 31.5625 1.375 C 26.550781 1.375 22 0.332031 17.90625 -1.75 C 13.8125 -3.84375 10.554688 -7.390625 8.140625 -12.390625 C 5.722656 -17.398438 4.515625 -24.289062 4.515625 -33.0625 C 4.515625 -41.320312 5.703125 -48.207031 8.078125 -53.71875 C 10.453125 -59.226562 13.664062 -63.359375 17.71875 -66.109375 C 21.769531 -68.867188 26.253906 -70.25 31.171875 -70.25 C 34.597656 -70.25 37.664062 -69.410156 40.375 -67.734375 C 43.09375 -66.066406 45.285156 -63.816406 46.953125 -60.984375 C 46.867188 -64.234375 46.828125 -67.484375 46.828125 -70.734375 C 46.828125 -73.992188 46.785156 -77.296875 46.703125 -80.640625 C 46.703125 -87.734375 50.25 -91.28125 57.34375 -91.28125 Z M 37.4375 -16.28125 C 39.613281 -16.28125 41.410156 -16.59375 42.828125 -17.21875 C 44.242188 -17.84375 45.492188 -18.78125 46.578125 -20.03125 C 46.578125 -22.039062 46.597656 -24.023438 46.640625 -25.984375 C 46.679688 -27.941406 46.742188 -29.96875 46.828125 -32.0625 C 46.910156 -34.476562 46.953125 -36.894531 46.953125 -39.3125 C 46.953125 -41.738281 46.953125 -44.117188 46.953125 -46.453125 C 46.203125 -49.046875 44.910156 -50.84375 43.078125 -51.84375 C 41.242188 -52.84375 39.195312 -53.34375 36.9375 -53.34375 C 34.769531 -53.34375 32.765625 -52.820312 30.921875 -51.78125 C 29.085938 -50.738281 27.609375 -48.859375 26.484375 -46.140625 C 25.359375 -43.429688 24.796875 -39.488281 24.796875 -34.3125 C 24.796875 -27.71875 25.898438 -23.0625 28.109375 -20.34375 C 30.328125 -17.632812 33.4375 -16.28125 37.4375 -16.28125 Z M 37.4375 -16.28125 "/></g></g></g><g fill="#5170ff" fill-opacity="1"><g transform="translate(249.519249, 118.26613)"><g><path d="M 43.328125 -14.15625 C 52.003906 -14.15625 58.785156 -12.773438 63.671875 -10.015625 C 68.554688 -7.265625 71 -2.46875 71 4.375 C 71 9.050781 69.847656 13.457031 67.546875 17.59375 C 65.253906 21.726562 61.476562 25.046875 56.21875 27.546875 C 50.957031 30.054688 43.863281 31.3125 34.9375 31.3125 C 25.414062 31.3125 17.796875 29.515625 12.078125 25.921875 C 6.359375 22.328125 3.5 17.398438 3.5 11.140625 C 3.5 7.054688 4.625 3.988281 6.875 1.9375 C 9.132812 -0.101562 11.6875 -1.164062 14.53125 -1.25 C 12.351562 -2.25 10.578125 -3.8125 9.203125 -5.9375 C 7.828125 -8.070312 7.140625 -10.429688 7.140625 -13.015625 C 7.140625 -15.523438 7.847656 -17.84375 9.265625 -19.96875 C 10.679688 -22.101562 12.519531 -23.671875 14.78125 -24.671875 C 7.675781 -28.753906 4.125 -35.640625 4.125 -45.328125 C 4.125 -51.671875 5.394531 -56.71875 7.9375 -60.46875 C 10.488281 -64.226562 14.625 -66.960938 20.34375 -68.671875 C 26.0625 -70.390625 33.679688 -71.25 43.203125 -71.25 C 45.703125 -71.25 48.390625 -71.1875 51.265625 -71.0625 C 54.148438 -70.9375 56.972656 -70.789062 59.734375 -70.625 C 63.316406 -70.457031 65.984375 -69.765625 67.734375 -68.546875 C 69.492188 -67.335938 70.207031 -65.859375 69.875 -64.109375 C 69.125 -60.609375 67.285156 -58.941406 64.359375 -59.109375 C 63.773438 -59.191406 63.109375 -59.234375 62.359375 -59.234375 C 61.609375 -59.234375 60.773438 -59.234375 59.859375 -59.234375 C 61.523438 -57.390625 62.753906 -55.257812 63.546875 -52.84375 C 64.335938 -50.425781 64.734375 -47.128906 64.734375 -42.953125 C 64.734375 -27.921875 54.925781 -20.40625 35.3125 -20.40625 C 32.976562 -20.40625 30.742188 -20.507812 28.609375 -20.71875 C 26.484375 -20.925781 24.503906 -21.238281 22.671875 -21.65625 C 22.242188 -21.070312 22.03125 -20.53125 22.03125 -20.03125 C 22.03125 -18.613281 22.550781 -17.46875 23.59375 -16.59375 C 24.644531 -15.71875 26.710938 -15.09375 29.796875 -14.71875 C 32.890625 -14.34375 37.398438 -14.15625 43.328125 -14.15625 Z M 35.3125 -57.71875 C 31.382812 -57.71875 28.585938 -56.863281 26.921875 -55.15625 C 25.253906 -53.445312 24.421875 -50.378906 24.421875 -45.953125 C 24.421875 -40.773438 25.421875 -37.289062 27.421875 -35.5 C 29.421875 -33.707031 32.050781 -32.8125 35.3125 -32.8125 C 38.476562 -32.8125 41.019531 -33.707031 42.9375 -35.5 C 44.863281 -37.289062 45.828125 -40.773438 45.828125 -45.953125 C 45.828125 -50.378906 45.015625 -53.445312 43.390625 -55.15625 C 41.765625 -56.863281 39.070312 -57.71875 35.3125 -57.71875 Z M 36.1875 16.53125 C 43.363281 16.53125 48.265625 15.984375 50.890625 14.890625 C 53.523438 13.804688 54.84375 11.972656 54.84375 9.390625 C 54.84375 6.472656 53.441406 4.738281 50.640625 4.1875 C 47.847656 3.644531 43.488281 3.375 37.5625 3.375 C 34.976562 3.375 32.265625 3.351562 29.421875 3.3125 C 26.585938 3.269531 23.914062 3.082031 21.40625 2.75 C 19.65625 3.75 18.78125 5.335938 18.78125 7.515625 C 18.78125 13.523438 24.582031 16.53125 36.1875 16.53125 Z M 36.1875 16.53125 "/></g></g></g><g fill="#5170ff" fill-opacity="1"><g transform="translate(322.766757, 118.26613)"><g><path d="M 36.8125 1.25 C 25.625 1.25 17.441406 -1.816406 12.265625 -7.953125 C 7.097656 -14.085938 4.515625 -23.332031 4.515625 -35.6875 C 4.515625 -58.8125 15.28125 -70.375 36.8125 -70.375 C 44.570312 -70.375 50.8125 -68.742188 55.53125 -65.484375 C 60.25 -62.234375 63.546875 -57.664062 65.421875 -51.78125 C 67.304688 -45.894531 67.828125 -39.070312 66.984375 -31.3125 C 66.816406 -29.96875 66.191406 -29.296875 65.109375 -29.296875 L 25.171875 -29.296875 C 25.335938 -25.046875 25.941406 -21.75 26.984375 -19.40625 C 28.023438 -17.070312 29.398438 -15.460938 31.109375 -14.578125 C 32.828125 -13.703125 34.769531 -13.265625 36.9375 -13.265625 C 40.195312 -13.265625 42.785156 -13.8125 44.703125 -14.90625 C 46.285156 -15.988281 47.515625 -17.03125 48.390625 -18.03125 C 49.273438 -19.03125 50.21875 -19.863281 51.21875 -20.53125 C 52.21875 -21.195312 53.59375 -21.53125 55.34375 -21.53125 C 58.601562 -21.53125 61.191406 -20.71875 63.109375 -19.09375 C 65.023438 -17.46875 65.523438 -15.234375 64.609375 -12.390625 C 61.691406 -3.296875 52.425781 1.25 36.8125 1.25 Z M 25.296875 -41.078125 L 45.828125 -41.078125 C 45.992188 -46.078125 45.285156 -49.828125 43.703125 -52.328125 C 42.117188 -54.835938 39.488281 -56.09375 35.8125 -56.09375 C 32.550781 -56.09375 29.960938 -54.859375 28.046875 -52.390625 C 26.128906 -49.929688 25.210938 -46.160156 25.296875 -41.078125 Z M 25.296875 -41.078125 "/></g></g></g></g></g><g transform="matrix(1, 0, 0, 1, 34, 33)"><g clip-path="url(#9a1dbedb30)"><g fill="#000000" fill-opacity="1"><g transform="translate(0.789554, 118.230924)"><g><path d="M 70.25 -78.390625 C 70.25 -75.710938 69.328125 -73.625 67.484375 -72.125 C 65.648438 -70.625 62.984375 -69.875 59.484375 -69.875 C 57.472656 -69.957031 55.550781 -70 53.71875 -70 C 51.882812 -70 50.003906 -70 48.078125 -70 L 48.078125 -43.453125 C 48.078125 -37.941406 48.078125 -32.472656 48.078125 -27.046875 C 48.078125 -21.617188 48.078125 -16.148438 48.078125 -10.640625 C 48.160156 -7.222656 47.285156 -4.59375 45.453125 -2.75 C 43.617188 -0.914062 40.988281 0 37.5625 0 L 35.3125 0 C 28.21875 0 24.671875 -3.546875 24.671875 -10.640625 C 24.753906 -16.066406 24.816406 -21.515625 24.859375 -26.984375 C 24.898438 -32.453125 24.921875 -37.941406 24.921875 -43.453125 C 24.921875 -47.878906 24.898438 -52.320312 24.859375 -56.78125 C 24.816406 -61.25 24.796875 -65.65625 24.796875 -70 C 23.035156 -70 21.257812 -70 19.46875 -70 C 17.675781 -70 15.820312 -69.957031 13.90625 -69.875 C 10.394531 -69.875 7.71875 -70.625 5.875 -72.125 C 4.039062 -73.625 3.125 -75.710938 3.125 -78.390625 C 3.125 -83.984375 6.675781 -86.78125 13.78125 -86.78125 L 59.609375 -86.78125 C 66.703125 -86.78125 70.25 -83.984375 70.25 -78.390625 Z M 70.25 -78.390625 "/></g></g></g><g fill="#000000" fill-opacity="1"><g transform="translate(74.162271, 118.230924)"><g><path d="M 36.8125 1.25 C 25.625 1.25 17.441406 -1.816406 12.265625 -7.953125 C 7.097656 -14.085938 4.515625 -23.332031 4.515625 -35.6875 C 4.515625 -58.8125 15.28125 -70.375 36.8125 -70.375 C 44.570312 -70.375 50.8125 -68.742188 55.53125 -65.484375 C 60.25 -62.234375 63.546875 -57.664062 65.421875 -51.78125 C 67.304688 -45.894531 67.828125 -39.070312 66.984375 -31.3125 C 66.816406 -29.96875 66.191406 -29.296875 65.109375 -29.296875 L 25.171875 -29.296875 C 25.335938 -25.046875 25.941406 -21.75 26.984375 -19.40625 C 28.023438 -17.070312 29.398438 -15.460938 31.109375 -14.578125 C 32.828125 -13.703125 34.769531 -13.265625 36.9375 -13.265625 C 40.195312 -13.265625 42.785156 -13.8125 44.703125 -14.90625 C 46.285156 -15.988281 47.515625 -17.03125 48.390625 -18.03125 C 49.273438 -19.03125 50.21875 -19.863281 51.21875 -20.53125 C 52.21875 -21.195312 53.59375 -21.53125 55.34375 -21.53125 C 58.601562 -21.53125 61.191406 -20.71875 63.109375 -19.09375 C 65.023438 -17.46875 65.523438 -15.234375 64.609375 -12.390625 C 61.691406 -3.296875 52.425781 1.25 36.8125 1.25 Z M 25.296875 -41.078125 L 45.828125 -41.078125 C 45.992188 -46.078125 45.285156 -49.828125 43.703125 -52.328125 C 42.117188 -54.835938 39.488281 -56.09375 35.8125 -56.09375 C 32.550781 -56.09375 29.960938 -54.859375 28.046875 -52.390625 C 26.128906 -49.929688 25.210938 -46.160156 25.296875 -41.078125 Z M 25.296875 -41.078125 "/></g></g></g><g fill="#000000" fill-opacity="1"><g transform="translate(146.282886, 118.230924)"><g><path d="M 36.6875 1.25 C 25.582031 1.25 17.441406 -1.710938 12.265625 -7.640625 C 7.097656 -13.566406 4.515625 -22.457031 4.515625 -34.3125 C 4.515625 -58.351562 15.445312 -70.375 37.3125 -70.375 C 44.988281 -70.375 51.0625 -68.765625 55.53125 -65.546875 C 60 -62.335938 62.941406 -57.6875 64.359375 -51.59375 C 65.191406 -48.082031 64.734375 -45.347656 62.984375 -43.390625 C 61.234375 -41.429688 58.769531 -40.453125 55.59375 -40.453125 C 52.34375 -40.453125 50.066406 -41.265625 48.765625 -42.890625 C 47.472656 -44.515625 46.160156 -46.875 44.828125 -49.96875 C 44.242188 -51.300781 43.320312 -52.257812 42.0625 -52.84375 C 40.8125 -53.425781 39.101562 -53.71875 36.9375 -53.71875 C 32.925781 -53.71875 30.085938 -52.273438 28.421875 -49.390625 C 26.753906 -46.515625 25.921875 -41.488281 25.921875 -34.3125 C 25.921875 -28.882812 26.378906 -24.6875 27.296875 -21.71875 C 28.210938 -18.757812 29.503906 -16.738281 31.171875 -15.65625 C 32.847656 -14.570312 34.769531 -14.03125 36.9375 -14.03125 C 40.53125 -14.03125 43.035156 -14.90625 44.453125 -16.65625 C 45.785156 -18.488281 46.890625 -20.070312 47.765625 -21.40625 C 48.640625 -22.75 49.640625 -23.796875 50.765625 -24.546875 C 51.898438 -25.296875 53.507812 -25.671875 55.59375 -25.671875 C 58.601562 -25.671875 60.984375 -24.75 62.734375 -22.90625 C 64.484375 -21.070312 64.898438 -18.570312 63.984375 -15.40625 C 60.898438 -4.300781 51.800781 1.25 36.6875 1.25 Z M 36.6875 1.25 "/></g></g></g><g fill="#000000" fill-opacity="1"><g transform="translate(215.523694, 118.230924)"><g><path d="M 69 -10.765625 C 69 -3.585938 65.453125 0 58.359375 0 L 57.96875 0 C 50.875 0 47.328125 -3.585938 47.328125 -10.765625 C 47.410156 -16.523438 47.472656 -22.015625 47.515625 -27.234375 C 47.554688 -32.453125 47.578125 -37.234375 47.578125 -41.578125 C 47.578125 -45.660156 46.867188 -48.492188 45.453125 -50.078125 C 44.035156 -51.671875 41.90625 -52.425781 39.0625 -52.34375 C 34.144531 -52.175781 30.640625 -49.671875 28.546875 -44.828125 C 28.460938 -38.984375 28.441406 -33.242188 28.484375 -27.609375 C 28.523438 -21.972656 28.585938 -16.316406 28.671875 -10.640625 C 28.671875 -3.546875 25.125 0 18.03125 0 L 17.15625 0 C 10.0625 0 6.515625 -3.546875 6.515625 -10.640625 C 6.597656 -16.648438 6.679688 -22.617188 6.765625 -28.546875 C 6.847656 -34.472656 6.890625 -40.523438 6.890625 -46.703125 C 6.890625 -52.378906 6.847656 -57.929688 6.765625 -63.359375 C 6.679688 -68.785156 6.597656 -74.335938 6.515625 -80.015625 C 6.515625 -87.109375 10.0625 -90.65625 17.15625 -90.65625 L 18.03125 -90.65625 C 25.039062 -90.65625 28.546875 -87.816406 28.546875 -82.140625 C 28.546875 -80.554688 28.546875 -79.03125 28.546875 -77.5625 C 28.546875 -76.101562 28.546875 -74.875 28.546875 -73.875 C 28.546875 -71.039062 28.503906 -68.285156 28.421875 -65.609375 C 28.335938 -62.941406 28.085938 -60.3125 27.671875 -57.71875 L 27.796875 -57.46875 C 30.222656 -61.894531 33.25 -65.148438 36.875 -67.234375 C 40.507812 -69.328125 44.75 -70.375 49.59375 -70.375 C 56.1875 -70.375 61.109375 -68.117188 64.359375 -63.609375 C 67.617188 -59.097656 69.125 -51.671875 68.875 -41.328125 C 68.789062 -36.984375 68.769531 -32.222656 68.8125 -27.046875 C 68.851562 -21.867188 68.914062 -16.441406 69 -10.765625 Z M 69 -10.765625 "/></g></g></g></g></g></svg>