<svg xmlns="http://www.w3.org/2000/svg" xmlns:xlink="http://www.w3.org/1999/xlink" width="1920" zoomAndPan="magnify" viewBox="0 0 1440 809.999993" height="1080" preserveAspectRatio="xMidYMid meet" version="1.0"><defs><clipPath id="124ba7b6de"><path d="M 0 430.09375 L 1440 430.09375 L 1440 810 L 0 810 Z M 0 430.09375 " clip-rule="nonzero"/></clipPath><clipPath id="289b87301e"><path d="M 0 0.09375 L 1440 0.09375 L 1440 380 L 0 380 Z M 0 0.09375 " clip-rule="nonzero"/></clipPath><clipPath id="acdda0ec9e"><rect x="0" width="1440" y="0" height="380"/></clipPath><clipPath id="cdd14e463a"><path d="M 1298.554688 417.152344 L 1419.097656 417.152344 L 1419.097656 440.804688 L 1298.554688 440.804688 Z M 1298.554688 417.152344 " clip-rule="nonzero"/></clipPath><clipPath id="26c7303c9a"><path d="M 1398.523438 423.226562 C 1408.199219 420.75 1409.25 421.949219 1409.324219 422.851562 C 1409.476562 423.75 1409.023438 424.875 1407.898438 425.851562 C 1404.300781 428.851562 1385.101562 431.175781 1378.125 434.175781 C 1374 435.898438 1371 439.574219 1368.75 439.648438 C 1367.550781 439.648438 1366.425781 438.898438 1365.976562 438.226562 C 1365.601562 437.699219 1365.523438 436.875 1365.675781 436.273438 C 1365.824219 435.675781 1366.125 435.148438 1366.800781 434.625 C 1368.449219 433.351562 1373.101562 432.226562 1377.601562 430.875 C 1384.726562 428.699219 1398.449219 425.550781 1405.648438 423.300781 C 1410.226562 421.800781 1414.726562 419.023438 1416.75 419.175781 C 1417.574219 419.175781 1418.023438 419.550781 1418.398438 419.925781 C 1418.773438 420.375 1419.148438 421.050781 1419.074219 421.648438 C 1419 422.398438 1418.476562 423.300781 1417.425781 424.050781 C 1415.023438 425.851562 1407.601562 426.601562 1401.824219 428.476562 C 1394.25 430.875 1380.074219 438 1376.023438 437.625 C 1374.675781 437.476562 1373.851562 436.875 1373.550781 436.125 C 1373.175781 435.375 1373.324219 434.101562 1374.074219 433.273438 C 1375.5 431.476562 1380.824219 430.273438 1385.398438 429 C 1391.851562 427.273438 1405.726562 423.824219 1409.398438 424.800781 C 1410.675781 425.175781 1411.425781 426 1411.726562 426.75 C 1411.949219 427.5 1411.800781 428.476562 1411.125 429.148438 C 1409.398438 430.949219 1398.824219 432.898438 1396.125 433.050781 C 1395.148438 433.050781 1394.699219 433.050781 1394.175781 432.675781 C 1393.5 432.300781 1392.824219 431.25 1392.75 430.425781 C 1392.675781 429.675781 1393.050781 428.773438 1393.800781 428.023438 C 1395.226562 426.675781 1399.875 425.773438 1402.199219 424.5 C 1404 423.449219 1406.550781 421.050781 1406.699219 421.199219 C 1406.851562 421.351562 1405.875 423.148438 1404.675781 423.75 C 1402.125 425.023438 1391.550781 425.851562 1389.449219 424.050781 C 1388.25 423 1387.875 420.226562 1388.851562 419.175781 C 1390.800781 417 1405.726562 418.726562 1408.726562 419.625 C 1409.625 420 1410.074219 420.300781 1410.449219 420.898438 C 1410.824219 421.425781 1410.976562 422.25 1410.898438 422.925781 C 1410.824219 423.601562 1410.449219 424.351562 1409.925781 424.800781 C 1409.476562 425.25 1409.023438 425.324219 1407.976562 425.550781 C 1404 426.226562 1388.023438 425.023438 1379.476562 425.25 C 1372.351562 425.398438 1362.898438 427.050781 1360.050781 426.449219 C 1359.148438 426.226562 1358.851562 426 1358.476562 425.550781 C 1358.101562 425.175781 1357.726562 424.5 1357.800781 423.898438 C 1357.949219 423.148438 1358.398438 422.101562 1359.449219 421.574219 C 1362.675781 419.925781 1379.851562 420.601562 1383.300781 421.949219 C 1384.425781 422.398438 1384.949219 422.925781 1385.175781 423.675781 C 1385.476562 424.5 1385.398438 425.851562 1384.425781 426.75 C 1381.425781 429.601562 1363.425781 430.5 1354.800781 432.601562 C 1348.125 434.25 1337.625 438.75 1337.023438 437.773438 C 1336.726562 437.324219 1338.226562 435.675781 1339.5 434.773438 C 1341.75 433.273438 1347.824219 431.101562 1350.074219 431.476562 C 1351.273438 431.625 1352.699219 432.75 1352.625 433.125 C 1352.324219 434.101562 1339.648438 432.675781 1333.726562 432.824219 C 1328.476562 432.898438 1321.574219 434.699219 1318.875 433.800781 C 1317.675781 433.351562 1316.925781 432.523438 1316.625 431.773438 C 1316.398438 431.175781 1316.550781 430.425781 1316.851562 429.898438 C 1317.074219 429.375 1317.300781 429.074219 1318.199219 428.625 C 1322.699219 426.675781 1358.175781 421.949219 1363.050781 424.125 C 1364.25 424.648438 1364.773438 425.699219 1364.773438 426.523438 C 1364.773438 427.351562 1364.25 428.175781 1363.199219 429 C 1360.125 431.175781 1347.824219 433.351562 1340.699219 434.550781 C 1334.476562 435.601562 1328.773438 436.050781 1322.851562 436.125 C 1317.074219 436.199219 1308.449219 435.074219 1305.675781 435.148438 C 1304.851562 435.148438 1304.550781 435.074219 1303.949219 435.300781 C 1303.273438 435.601562 1302.601562 436.726562 1301.925781 436.875 C 1301.324219 437.023438 1300.5 436.875 1299.976562 436.5 C 1299.449219 436.199219 1298.925781 435.523438 1298.773438 434.925781 C 1298.550781 434.324219 1298.550781 433.648438 1298.851562 432.976562 C 1299.375 432 1300.949219 431.101562 1302.449219 430.199219 C 1304.625 428.925781 1307.625 427.5 1310.773438 426.601562 C 1314.523438 425.550781 1318.875 424.726562 1323.601562 424.726562 C 1329.523438 424.726562 1337.101562 426.976562 1343.398438 427.648438 C 1349.175781 428.25 1353.375 428.699219 1360.050781 428.550781 C 1370.25 428.398438 1389.601562 424.949219 1398.601562 425.101562 C 1403.550781 425.175781 1408.273438 424.949219 1410 426.449219 C 1410.898438 427.351562 1411.199219 429.074219 1410.824219 429.976562 C 1410.449219 430.949219 1409.398438 431.625 1407.824219 432 C 1403.625 433.125 1386.976562 431.398438 1382.398438 429.523438 C 1380.375 428.773438 1378.800781 427.574219 1378.574219 426.523438 C 1378.5 425.625 1379.625 424.351562 1380.449219 423.75 C 1381.273438 423.226562 1382.023438 423.226562 1383.449219 423.074219 C 1387.050781 422.699219 1398.226562 422.925781 1402.425781 423.375 C 1404.523438 423.601562 1405.949219 423.824219 1407.074219 424.273438 C 1407.824219 424.574219 1408.351562 424.800781 1408.726562 425.398438 C 1409.101562 426.074219 1409.324219 427.425781 1409.101562 428.175781 C 1408.949219 428.851562 1408.425781 429.375 1407.898438 429.75 C 1407.449219 430.125 1406.699219 430.351562 1406.023438 430.273438 C 1405.273438 430.125 1404.074219 429.449219 1403.625 428.773438 C 1403.175781 428.023438 1403.101562 426.675781 1403.476562 425.851562 C 1403.851562 425.101562 1405.050781 424.351562 1405.800781 424.199219 C 1406.398438 424.050781 1407.148438 424.199219 1407.75 424.5 C 1408.273438 424.800781 1408.800781 425.398438 1409.023438 425.925781 C 1409.324219 426.523438 1409.398438 427.273438 1409.25 427.875 C 1409.101562 428.476562 1408.648438 429.148438 1408.199219 429.523438 C 1407.75 429.976562 1407.148438 430.199219 1406.398438 430.273438 C 1405.273438 430.351562 1404.074219 429.601562 1402.125 429.375 C 1397.925781 428.925781 1383 430.273438 1382.175781 428.699219 C 1381.875 428.101562 1383.976562 427.125 1384.050781 426.226562 C 1384.125 425.398438 1382.25 424.125 1382.699219 423.449219 C 1383.976562 421.648438 1405.050781 424.425781 1408.648438 425.773438 C 1409.699219 426.148438 1410.074219 426.449219 1410.449219 427.050781 C 1410.898438 427.648438 1411.125 428.550781 1410.976562 429.226562 C 1410.898438 429.976562 1410.449219 430.800781 1409.925781 431.25 C 1409.398438 431.699219 1408.875 431.851562 1407.824219 432 C 1404.976562 432.449219 1397.925781 430.949219 1391.398438 431.101562 C 1381.648438 431.324219 1367.101562 434.773438 1355.25 434.699219 C 1343.925781 434.625 1330.050781 430.726562 1321.875 430.949219 C 1317.148438 431.101562 1314.226562 431.773438 1310.773438 432.824219 C 1307.398438 433.800781 1303.273438 437.101562 1301.25 436.949219 C 1300.199219 436.875 1299.449219 436.199219 1299 435.601562 C 1298.625 435 1298.625 434.25 1298.699219 433.648438 C 1298.773438 433.050781 1299 432.449219 1299.523438 431.925781 C 1300.050781 431.324219 1301.175781 430.800781 1302.148438 430.425781 C 1303.273438 430.050781 1304.398438 429.898438 1305.976562 429.898438 C 1308.824219 429.824219 1313.773438 430.949219 1317.449219 431.175781 C 1321.050781 431.324219 1324.273438 431.398438 1327.875 431.175781 C 1331.699219 430.949219 1335.523438 430.574219 1339.726562 429.75 C 1344.675781 428.699219 1351.351562 426.226562 1355.699219 425.25 C 1358.550781 424.648438 1361.550781 423.675781 1363.050781 424.125 C 1363.726562 424.273438 1364.175781 424.800781 1364.476562 425.324219 C 1364.699219 425.773438 1364.851562 426.523438 1364.699219 427.125 C 1364.625 427.726562 1364.175781 428.324219 1363.726562 428.699219 C 1363.273438 429.074219 1362.976562 429.074219 1362 429.300781 C 1357.199219 430.425781 1324.125 435.449219 1318.875 433.800781 C 1317.523438 433.351562 1316.773438 432.601562 1316.625 431.773438 C 1316.398438 430.949219 1316.699219 429.675781 1317.675781 428.925781 C 1319.851562 427.273438 1328.023438 427.875 1333.726562 427.726562 C 1340.175781 427.5 1350.824219 426.523438 1354.425781 428.25 C 1356 429 1357.050781 430.273438 1357.199219 431.398438 C 1357.425781 432.449219 1356.675781 433.800781 1355.699219 434.699219 C 1354.351562 436.125 1351.351562 436.949219 1348.648438 437.925781 C 1345.351562 439.050781 1340.25 440.773438 1337.175781 440.773438 C 1335.148438 440.699219 1332.976562 440.398438 1332.148438 439.351562 C 1331.398438 438.449219 1331.324219 436.273438 1331.925781 435.226562 C 1332.449219 434.175781 1334.023438 433.875 1335.601562 433.199219 C 1338.226562 432.074219 1342.425781 431.023438 1346.25 429.976562 C 1350.675781 428.699219 1355.25 427.351562 1360.574219 426.148438 C 1367.101562 424.648438 1378.875 421.050781 1382.625 421.800781 C 1383.976562 422.101562 1384.875 422.851562 1385.175781 423.675781 C 1385.550781 424.5 1385.023438 426.148438 1384.425781 426.75 C 1383.976562 427.273438 1383.523438 427.273438 1382.550781 427.425781 C 1379.25 427.949219 1363.125 427.273438 1360.050781 426.449219 C 1359.148438 426.226562 1358.851562 426 1358.476562 425.550781 C 1358.101562 425.175781 1357.726562 424.5 1357.800781 423.898438 C 1357.949219 423.148438 1358.25 422.175781 1359.449219 421.574219 C 1364.476562 418.800781 1402.125 418.273438 1407.976562 419.550781 C 1409.398438 419.925781 1409.925781 420.226562 1410.449219 420.898438 C 1410.824219 421.425781 1410.976562 422.25 1410.898438 422.925781 C 1410.824219 423.601562 1410.449219 424.351562 1409.925781 424.800781 C 1409.476562 425.25 1408.949219 425.324219 1407.976562 425.550781 C 1404.898438 426.074219 1392.976562 425.925781 1389.148438 425.101562 C 1387.351562 424.726562 1386 424.5 1385.398438 423.523438 C 1384.800781 422.476562 1384.800781 419.925781 1386 418.800781 C 1388.625 416.398438 1402.800781 417.375 1407.148438 417.523438 C 1409.175781 417.601562 1410.601562 417.300781 1411.5 418.125 C 1412.476562 419.023438 1413.074219 421.351562 1412.625 422.773438 C 1412.101562 424.574219 1409.550781 426.375 1407.523438 427.800781 C 1405.425781 429.375 1402.199219 430.949219 1400.101562 431.851562 C 1398.601562 432.449219 1397.324219 433.050781 1396.125 432.976562 C 1395.226562 432.976562 1394.175781 432.824219 1393.574219 432.300781 C 1393.050781 431.699219 1392.601562 430.574219 1392.824219 429.75 C 1392.976562 428.925781 1393.800781 428.101562 1395 427.5 C 1397.625 426.074219 1406.773438 424.125 1409.398438 424.800781 C 1410.601562 425.101562 1411.5 426 1411.726562 426.75 C 1411.875 427.574219 1411.574219 428.773438 1410.675781 429.601562 C 1408.351562 431.476562 1398.675781 431.175781 1392.824219 432.523438 C 1387.125 433.875 1378.726562 437.625 1376.023438 437.625 C 1375.125 437.625 1374.75 437.398438 1374.300781 437.101562 C 1373.851562 436.726562 1373.476562 436.125 1373.324219 435.523438 C 1373.25 435 1373.398438 434.25 1373.625 433.726562 C 1373.925781 433.273438 1374.226562 433.125 1375.050781 432.601562 C 1378.648438 430.648438 1398.226562 423.75 1405.949219 421.5 C 1410.449219 420.226562 1414.574219 418.574219 1416.75 419.175781 C 1417.875 419.398438 1418.699219 420.300781 1419 421.050781 C 1419.226562 421.574219 1419 422.324219 1418.773438 422.851562 C 1418.550781 423.375 1418.324219 423.601562 1417.425781 424.050781 C 1412.851562 426.675781 1375.050781 440.101562 1368.75 439.648438 C 1367.25 439.5 1366.351562 438.976562 1365.976562 438.226562 C 1365.523438 437.476562 1365.601562 436.125 1366.273438 435.074219 C 1367.625 433.050781 1372.050781 431.023438 1376.476562 429.148438 C 1383.675781 426 1401.824219 419.699219 1406.398438 420.375 C 1407.898438 420.601562 1408.726562 421.425781 1409.175781 422.175781 C 1409.476562 422.773438 1409.398438 423.675781 1409.25 424.273438 C 1409.023438 424.875 1408.648438 425.398438 1407.898438 425.925781 C 1406.324219 427.050781 1400.773438 429.300781 1398.824219 428.851562 C 1397.699219 428.550781 1396.726562 427.351562 1396.5 426.523438 C 1396.273438 425.851562 1396.574219 425.023438 1396.875 424.5 C 1397.25 423.976562 1398.523438 423.226562 1398.523438 423.226562 " clip-rule="nonzero"/></clipPath><clipPath id="c7505a46f4"><path d="M 0.554688 0.152344 L 121.097656 0.152344 L 121.097656 23.804688 L 0.554688 23.804688 Z M 0.554688 0.152344 " clip-rule="nonzero"/></clipPath><clipPath id="ed376c2ca3"><path d="M 100.523438 6.226562 C 110.199219 3.75 111.25 4.949219 111.324219 5.851562 C 111.476562 6.75 111.023438 7.875 109.898438 8.851562 C 106.300781 11.851562 87.101562 14.175781 80.125 17.175781 C 76 18.898438 73 22.574219 70.75 22.648438 C 69.550781 22.648438 68.425781 21.898438 67.976562 21.226562 C 67.601562 20.699219 67.523438 19.875 67.675781 19.273438 C 67.824219 18.675781 68.125 18.148438 68.800781 17.625 C 70.449219 16.351562 75.101562 15.226562 79.601562 13.875 C 86.726562 11.699219 100.449219 8.550781 107.648438 6.300781 C 112.226562 4.800781 116.726562 2.023438 118.75 2.175781 C 119.574219 2.175781 120.023438 2.550781 120.398438 2.925781 C 120.773438 3.375 121.148438 4.050781 121.074219 4.648438 C 121 5.398438 120.476562 6.300781 119.425781 7.050781 C 117.023438 8.851562 109.601562 9.601562 103.824219 11.476562 C 96.25 13.875 82.074219 21 78.023438 20.625 C 76.675781 20.476562 75.851562 19.875 75.550781 19.125 C 75.175781 18.375 75.324219 17.101562 76.074219 16.273438 C 77.5 14.476562 82.824219 13.273438 87.398438 12 C 93.851562 10.273438 107.726562 6.824219 111.398438 7.800781 C 112.675781 8.175781 113.425781 9 113.726562 9.75 C 113.949219 10.5 113.800781 11.476562 113.125 12.148438 C 111.398438 13.949219 100.824219 15.898438 98.125 16.050781 C 97.148438 16.050781 96.699219 16.050781 96.175781 15.675781 C 95.5 15.300781 94.824219 14.25 94.75 13.425781 C 94.675781 12.675781 95.050781 11.773438 95.800781 11.023438 C 97.226562 9.675781 101.875 8.773438 104.199219 7.5 C 106 6.449219 108.550781 4.050781 108.699219 4.199219 C 108.851562 4.351562 107.875 6.148438 106.675781 6.75 C 104.125 8.023438 93.550781 8.851562 91.449219 7.050781 C 90.25 6 89.875 3.226562 90.851562 2.175781 C 92.800781 0 107.726562 1.726562 110.726562 2.625 C 111.625 3 112.074219 3.300781 112.449219 3.898438 C 112.824219 4.425781 112.976562 5.25 112.898438 5.925781 C 112.824219 6.601562 112.449219 7.351562 111.925781 7.800781 C 111.476562 8.25 111.023438 8.324219 109.976562 8.550781 C 106 9.226562 90.023438 8.023438 81.476562 8.25 C 74.351562 8.398438 64.898438 10.050781 62.050781 9.449219 C 61.148438 9.226562 60.851562 9 60.476562 8.550781 C 60.101562 8.175781 59.726562 7.5 59.800781 6.898438 C 59.949219 6.148438 60.398438 5.101562 61.449219 4.574219 C 64.675781 2.925781 81.851562 3.601562 85.300781 4.949219 C 86.425781 5.398438 86.949219 5.925781 87.175781 6.675781 C 87.476562 7.5 87.398438 8.851562 86.425781 9.75 C 83.425781 12.601562 65.425781 13.5 56.800781 15.601562 C 50.125 17.25 39.625 21.75 39.023438 20.773438 C 38.726562 20.324219 40.226562 18.675781 41.5 17.773438 C 43.75 16.273438 49.824219 14.101562 52.074219 14.476562 C 53.273438 14.625 54.699219 15.75 54.625 16.125 C 54.324219 17.101562 41.648438 15.675781 35.726562 15.824219 C 30.476562 15.898438 23.574219 17.699219 20.875 16.800781 C 19.675781 16.351562 18.925781 15.523438 18.625 14.773438 C 18.398438 14.175781 18.550781 13.425781 18.851562 12.898438 C 19.074219 12.375 19.300781 12.074219 20.199219 11.625 C 24.699219 9.675781 60.175781 4.949219 65.050781 7.125 C 66.25 7.648438 66.773438 8.699219 66.773438 9.523438 C 66.773438 10.351562 66.25 11.175781 65.199219 12 C 62.125 14.175781 49.824219 16.351562 42.699219 17.550781 C 36.476562 18.601562 30.773438 19.050781 24.851562 19.125 C 19.074219 19.199219 10.449219 18.074219 7.675781 18.148438 C 6.851562 18.148438 6.550781 18.074219 5.949219 18.300781 C 5.273438 18.601562 4.601562 19.726562 3.925781 19.875 C 3.324219 20.023438 2.5 19.875 1.976562 19.5 C 1.449219 19.199219 0.925781 18.523438 0.773438 17.925781 C 0.550781 17.324219 0.550781 16.648438 0.851562 15.976562 C 1.375 15 2.949219 14.101562 4.449219 13.199219 C 6.625 11.925781 9.625 10.5 12.773438 9.601562 C 16.523438 8.550781 20.875 7.726562 25.601562 7.726562 C 31.523438 7.726562 39.101562 9.976562 45.398438 10.648438 C 51.175781 11.25 55.375 11.699219 62.050781 11.550781 C 72.25 11.398438 91.601562 7.949219 100.601562 8.101562 C 105.550781 8.175781 110.273438 7.949219 112 9.449219 C 112.898438 10.351562 113.199219 12.074219 112.824219 12.976562 C 112.449219 13.949219 111.398438 14.625 109.824219 15 C 105.625 16.125 88.976562 14.398438 84.398438 12.523438 C 82.375 11.773438 80.800781 10.574219 80.574219 9.523438 C 80.5 8.625 81.625 7.351562 82.449219 6.75 C 83.273438 6.226562 84.023438 6.226562 85.449219 6.074219 C 89.050781 5.699219 100.226562 5.925781 104.425781 6.375 C 106.523438 6.601562 107.949219 6.824219 109.074219 7.273438 C 109.824219 7.574219 110.351562 7.800781 110.726562 8.398438 C 111.101562 9.074219 111.324219 10.425781 111.101562 11.175781 C 110.949219 11.851562 110.425781 12.375 109.898438 12.75 C 109.449219 13.125 108.699219 13.351562 108.023438 13.273438 C 107.273438 13.125 106.074219 12.449219 105.625 11.773438 C 105.175781 11.023438 105.101562 9.675781 105.476562 8.851562 C 105.851562 8.101562 107.050781 7.351562 107.800781 7.199219 C 108.398438 7.050781 109.148438 7.199219 109.75 7.5 C 110.273438 7.800781 110.800781 8.398438 111.023438 8.925781 C 111.324219 9.523438 111.398438 10.273438 111.25 10.875 C 111.101562 11.476562 110.648438 12.148438 110.199219 12.523438 C 109.75 12.976562 109.148438 13.199219 108.398438 13.273438 C 107.273438 13.351562 106.074219 12.601562 104.125 12.375 C 99.925781 11.925781 85 13.273438 84.175781 11.699219 C 83.875 11.101562 85.976562 10.125 86.050781 9.226562 C 86.125 8.398438 84.25 7.125 84.699219 6.449219 C 85.976562 4.648438 107.050781 7.425781 110.648438 8.773438 C 111.699219 9.148438 112.074219 9.449219 112.449219 10.050781 C 112.898438 10.648438 113.125 11.550781 112.976562 12.226562 C 112.898438 12.976562 112.449219 13.800781 111.925781 14.25 C 111.398438 14.699219 110.875 14.851562 109.824219 15 C 106.976562 15.449219 99.925781 13.949219 93.398438 14.101562 C 83.648438 14.324219 69.101562 17.773438 57.25 17.699219 C 45.925781 17.625 32.050781 13.726562 23.875 13.949219 C 19.148438 14.101562 16.226562 14.773438 12.773438 15.824219 C 9.398438 16.800781 5.273438 20.101562 3.25 19.949219 C 2.199219 19.875 1.449219 19.199219 1 18.601562 C 0.625 18 0.625 17.25 0.699219 16.648438 C 0.773438 16.050781 1 15.449219 1.523438 14.925781 C 2.050781 14.324219 3.175781 13.800781 4.148438 13.425781 C 5.273438 13.050781 6.398438 12.898438 7.976562 12.898438 C 10.824219 12.824219 15.773438 13.949219 19.449219 14.175781 C 23.050781 14.324219 26.273438 14.398438 29.875 14.175781 C 33.699219 13.949219 37.523438 13.574219 41.726562 12.75 C 46.675781 11.699219 53.351562 9.226562 57.699219 8.25 C 60.550781 7.648438 63.550781 6.675781 65.050781 7.125 C 65.726562 7.273438 66.175781 7.800781 66.476562 8.324219 C 66.699219 8.773438 66.851562 9.523438 66.699219 10.125 C 66.625 10.726562 66.175781 11.324219 65.726562 11.699219 C 65.273438 12.074219 64.976562 12.074219 64 12.300781 C 59.199219 13.425781 26.125 18.449219 20.875 16.800781 C 19.523438 16.351562 18.773438 15.601562 18.625 14.773438 C 18.398438 13.949219 18.699219 12.675781 19.675781 11.925781 C 21.851562 10.273438 30.023438 10.875 35.726562 10.726562 C 42.175781 10.5 52.824219 9.523438 56.425781 11.25 C 58 12 59.050781 13.273438 59.199219 14.398438 C 59.425781 15.449219 58.675781 16.800781 57.699219 17.699219 C 56.351562 19.125 53.351562 19.949219 50.648438 20.925781 C 47.351562 22.050781 42.25 23.773438 39.175781 23.773438 C 37.148438 23.699219 34.976562 23.398438 34.148438 22.351562 C 33.398438 21.449219 33.324219 19.273438 33.925781 18.226562 C 34.449219 17.175781 36.023438 16.875 37.601562 16.199219 C 40.226562 15.074219 44.425781 14.023438 48.25 12.976562 C 52.675781 11.699219 57.25 10.351562 62.574219 9.148438 C 69.101562 7.648438 80.875 4.050781 84.625 4.800781 C 85.976562 5.101562 86.875 5.851562 87.175781 6.675781 C 87.550781 7.5 87.023438 9.148438 86.425781 9.75 C 85.976562 10.273438 85.523438 10.273438 84.550781 10.425781 C 81.25 10.949219 65.125 10.273438 62.050781 9.449219 C 61.148438 9.226562 60.851562 9 60.476562 8.550781 C 60.101562 8.175781 59.726562 7.5 59.800781 6.898438 C 59.949219 6.148438 60.25 5.175781 61.449219 4.574219 C 66.476562 1.800781 104.125 1.273438 109.976562 2.550781 C 111.398438 2.925781 111.925781 3.226562 112.449219 3.898438 C 112.824219 4.425781 112.976562 5.25 112.898438 5.925781 C 112.824219 6.601562 112.449219 7.351562 111.925781 7.800781 C 111.476562 8.25 110.949219 8.324219 109.976562 8.550781 C 106.898438 9.074219 94.976562 8.925781 91.148438 8.101562 C 89.351562 7.726562 88 7.5 87.398438 6.523438 C 86.800781 5.476562 86.800781 2.925781 88 1.800781 C 90.625 -0.601562 104.800781 0.375 109.148438 0.523438 C 111.175781 0.601562 112.601562 0.300781 113.5 1.125 C 114.476562 2.023438 115.074219 4.351562 114.625 5.773438 C 114.101562 7.574219 111.550781 9.375 109.523438 10.800781 C 107.425781 12.375 104.199219 13.949219 102.101562 14.851562 C 100.601562 15.449219 99.324219 16.050781 98.125 15.976562 C 97.226562 15.976562 96.175781 15.824219 95.574219 15.300781 C 95.050781 14.699219 94.601562 13.574219 94.824219 12.75 C 94.976562 11.925781 95.800781 11.101562 97 10.5 C 99.625 9.074219 108.773438 7.125 111.398438 7.800781 C 112.601562 8.101562 113.5 9 113.726562 9.75 C 113.875 10.574219 113.574219 11.773438 112.675781 12.601562 C 110.351562 14.476562 100.675781 14.175781 94.824219 15.523438 C 89.125 16.875 80.726562 20.625 78.023438 20.625 C 77.125 20.625 76.75 20.398438 76.300781 20.101562 C 75.851562 19.726562 75.476562 19.125 75.324219 18.523438 C 75.25 18 75.398438 17.25 75.625 16.726562 C 75.925781 16.273438 76.226562 16.125 77.050781 15.601562 C 80.648438 13.648438 100.226562 6.75 107.949219 4.5 C 112.449219 3.226562 116.574219 1.574219 118.75 2.175781 C 119.875 2.398438 120.699219 3.300781 121 4.050781 C 121.226562 4.574219 121 5.324219 120.773438 5.851562 C 120.550781 6.375 120.324219 6.601562 119.425781 7.050781 C 114.851562 9.675781 77.050781 23.101562 70.75 22.648438 C 69.25 22.5 68.351562 21.976562 67.976562 21.226562 C 67.523438 20.476562 67.601562 19.125 68.273438 18.074219 C 69.625 16.050781 74.050781 14.023438 78.476562 12.148438 C 85.675781 9 103.824219 2.699219 108.398438 3.375 C 109.898438 3.601562 110.726562 4.425781 111.175781 5.175781 C 111.476562 5.773438 111.398438 6.675781 111.25 7.273438 C 111.023438 7.875 110.648438 8.398438 109.898438 8.925781 C 108.324219 10.050781 102.773438 12.300781 100.824219 11.851562 C 99.699219 11.550781 98.726562 10.351562 98.5 9.523438 C 98.273438 8.851562 98.574219 8.023438 98.875 7.5 C 99.25 6.976562 100.523438 6.226562 100.523438 6.226562 " clip-rule="nonzero"/></clipPath><clipPath id="8d2dc11a96"><rect x="0" width="122" y="0" height="24"/></clipPath><clipPath id="7489105231"><path d="M 1434.429688 414.355469 L 1440 414.355469 L 1440 420.367188 L 1434.429688 420.367188 Z M 1434.429688 414.355469 " clip-rule="nonzero"/></clipPath><clipPath id="820b3b494e"><path d="M 1440.300781 416.398438 C 1439.550781 419.625 1439.101562 419.851562 1438.648438 420 C 1438.273438 420.226562 1437.75 420.375 1437.300781 420.300781 C 1436.550781 420.148438 1435.351562 419.398438 1434.898438 418.875 C 1434.523438 418.425781 1434.449219 417.976562 1434.449219 417.449219 C 1434.523438 416.773438 1435.050781 415.425781 1435.574219 414.976562 C 1435.949219 414.601562 1436.398438 414.375 1436.925781 414.375 C 1437.601562 414.300781 1439.550781 415.199219 1439.550781 415.199219 " clip-rule="nonzero"/></clipPath><clipPath id="229ace5327"><path d="M 0.429688 0.355469 L 6 0.355469 L 6 6.367188 L 0.429688 6.367188 Z M 0.429688 0.355469 " clip-rule="nonzero"/></clipPath><clipPath id="5775aa12af"><path d="M 6.300781 2.398438 C 5.550781 5.625 5.101562 5.851562 4.648438 6 C 4.273438 6.226562 3.75 6.375 3.300781 6.300781 C 2.550781 6.148438 1.351562 5.398438 0.898438 4.875 C 0.523438 4.425781 0.449219 3.976562 0.449219 3.449219 C 0.523438 2.773438 1.050781 1.425781 1.574219 0.976562 C 1.949219 0.601562 2.398438 0.375 2.925781 0.375 C 3.601562 0.300781 5.550781 1.199219 5.550781 1.199219 " clip-rule="nonzero"/></clipPath><clipPath id="fb7de47a9f"><rect x="0" width="6" y="0" height="7"/></clipPath><clipPath id="875dfd52b9"><path d="M 1371.589844 408.203125 L 1440 408.203125 L 1440 444.007812 L 1371.589844 444.007812 Z M 1371.589844 408.203125 " clip-rule="nonzero"/></clipPath><clipPath id="2990829bf1"><path d="M 1435.273438 418.050781 C 1434 411.75 1433.925781 411 1434.300781 410.398438 C 1434.824219 409.648438 1436.550781 408.675781 1437.523438 408.75 C 1438.425781 408.824219 1439.398438 409.351562 1439.925781 410.476562 C 1441.351562 413.25 1441.5 426.226562 1439.550781 428.851562 C 1438.574219 430.050781 1436.398438 430.648438 1435.425781 430.050781 C 1433.925781 429.226562 1433.699219 424.199219 1433.324219 421.425781 C 1432.949219 418.875 1432.050781 414.976562 1433.023438 414.148438 C 1433.625 413.550781 1436.175781 414 1436.398438 414.675781 C 1436.925781 416.324219 1426.050781 424.273438 1423.351562 428.25 C 1421.625 430.875 1421.699219 434.625 1420.125 435.449219 C 1418.925781 436.050781 1416.148438 435.449219 1415.851562 434.773438 C 1415.625 434.175781 1417.125 433.273438 1417.800781 431.925781 C 1419.148438 429.226562 1421.023438 421.425781 1422.601562 419.175781 C 1423.273438 418.125 1423.875 417.449219 1424.625 417.226562 C 1425.300781 417 1426.199219 417.074219 1426.800781 417.449219 C 1427.476562 417.824219 1428.226562 418.726562 1428.449219 419.773438 C 1428.824219 421.125 1427.25 423.824219 1427.699219 425.101562 C 1428.148438 426.074219 1429.726562 427.351562 1430.25 427.125 C 1430.773438 426.976562 1430.925781 425.175781 1430.925781 424.050781 C 1430.851562 422.773438 1430.023438 420 1429.800781 420 C 1429.574219 420 1429.875 423.75 1429.5 425.398438 C 1429.125 426.824219 1428.300781 427.800781 1427.925781 429.226562 C 1427.476562 430.875 1426.949219 434.773438 1427.101562 434.851562 C 1427.175781 434.851562 1427.398438 431.175781 1428.148438 430.800781 C 1428.824219 430.5 1430.851562 431.25 1431 431.925781 C 1431.226562 432.824219 1428.523438 435.898438 1427.175781 436.351562 C 1426.273438 436.726562 1424.925781 436.425781 1424.25 435.898438 C 1423.5 435.375 1422.898438 434.175781 1422.976562 433.125 C 1423.050781 431.699219 1425.300781 430.050781 1426.351562 428.175781 C 1427.476562 426.148438 1429.574219 421.425781 1429.273438 421.273438 C 1429.125 421.125 1428.226562 423.523438 1426.351562 424.800781 C 1419.898438 429.449219 1381.125 443.101562 1375.125 443.851562 C 1373.851562 444.074219 1373.398438 444.074219 1372.800781 443.699219 C 1372.199219 443.324219 1371.675781 442.351562 1371.675781 441.675781 C 1371.675781 440.925781 1371.976562 440.324219 1372.648438 439.574219 C 1374.226562 437.925781 1378.050781 436.273438 1382.25 434.175781 C 1389.675781 430.425781 1409.101562 420.074219 1413.898438 420.226562 C 1415.25 420.226562 1416.074219 420.898438 1416.601562 421.5 C 1416.898438 421.949219 1416.976562 422.773438 1416.824219 423.300781 C 1416.75 423.898438 1416.449219 424.273438 1415.851562 424.875 C 1414.050781 426.75 1405.800781 432.75 1403.398438 433.800781 C 1402.5 434.101562 1402.050781 434.25 1401.375 434.101562 C 1400.773438 433.949219 1400.101562 433.574219 1399.726562 433.050781 C 1399.273438 432.449219 1399.125 431.175781 1399.273438 430.425781 C 1399.425781 429.824219 1399.726562 429.449219 1400.550781 428.925781 C 1403.175781 427.199219 1417.351562 423.898438 1420.574219 423.75 C 1421.625 423.75 1422.074219 423.824219 1422.601562 424.199219 C 1423.199219 424.5 1423.726562 425.175781 1423.875 425.851562 C 1424.101562 426.449219 1424.023438 427.273438 1423.726562 427.875 C 1423.425781 428.476562 1423.125 428.851562 1422.226562 429.300781 C 1419.75 430.875 1407.898438 435.601562 1405.125 434.925781 C 1404 434.699219 1403.324219 433.800781 1403.101562 432.976562 C 1402.875 432.148438 1403.324219 430.949219 1404.074219 429.824219 C 1405.648438 427.425781 1412.175781 423.824219 1414.574219 421.5 C 1416 420.074219 1416.523438 418.351562 1417.648438 417.75 C 1418.476562 417.300781 1419.601562 417.148438 1420.351562 417.449219 C 1421.175781 417.75 1422 418.726562 1422.226562 419.476562 C 1422.375 420.300781 1422.226562 421.425781 1421.476562 422.175781 C 1420.199219 423.449219 1415.625 423.976562 1412.550781 424.273438 C 1409.25 424.574219 1404.226562 424.648438 1402.351562 423.898438 C 1401.523438 423.601562 1401.074219 423.148438 1400.773438 422.625 C 1400.476562 422.023438 1400.25 421.199219 1400.476562 420.523438 C 1400.625 419.773438 1401.074219 419.101562 1402.199219 418.425781 C 1404.976562 416.625 1417.726562 413.023438 1420.800781 413.625 C 1422 413.851562 1422.75 414.601562 1423.050781 415.351562 C 1423.425781 416.101562 1423.5 417.300781 1422.898438 418.199219 C 1421.925781 419.699219 1416.976562 421.949219 1415.175781 422.25 C 1414.273438 422.398438 1413.601562 422.25 1413 421.949219 C 1412.398438 421.574219 1411.726562 420.976562 1411.574219 420.226562 C 1411.425781 419.324219 1411.574219 417.898438 1412.550781 416.851562 C 1414.800781 414.523438 1426.726562 411.601562 1429.648438 411.300781 C 1430.699219 411.226562 1431.226562 411.300781 1431.824219 411.601562 C 1432.351562 411.898438 1432.949219 412.574219 1433.175781 413.175781 C 1433.398438 413.851562 1433.398438 414.75 1433.175781 415.351562 C 1432.949219 415.949219 1432.648438 416.398438 1431.75 416.925781 C 1428.523438 418.726562 1407.675781 423.75 1405.648438 421.726562 C 1404.898438 420.976562 1405.351562 418.949219 1406.398438 417.675781 C 1408.875 414.75 1423.050781 410.25 1426.875 410.324219 C 1428.375 410.324219 1429.425781 410.925781 1430.023438 411.601562 C 1430.476562 412.125 1430.550781 413.023438 1430.476562 413.625 C 1430.324219 414.300781 1429.949219 414.898438 1429.425781 415.5 C 1428.601562 416.324219 1426.800781 417.824219 1425.675781 417.898438 C 1424.773438 417.898438 1423.648438 417.226562 1423.125 416.625 C 1422.75 416.101562 1422.523438 415.425781 1422.601562 414.75 C 1422.75 414 1423.351562 412.800781 1424.023438 412.351562 C 1424.699219 411.898438 1426.050781 411.898438 1426.800781 412.199219 C 1427.398438 412.351562 1427.925781 412.949219 1428.226562 413.476562 C 1428.523438 414 1428.675781 414.75 1428.523438 415.351562 C 1428.375 416.101562 1427.550781 417.226562 1426.875 417.601562 C 1426.351562 417.898438 1425.601562 417.976562 1425 417.824219 C 1424.398438 417.675781 1423.726562 417.375 1423.351562 416.851562 C 1422.898438 416.25 1422.449219 415.050781 1422.75 414.148438 C 1423.050781 412.949219 1425.226562 411.074219 1426.199219 410.550781 C 1426.726562 410.25 1427.101562 410.175781 1427.625 410.25 C 1428.300781 410.324219 1429.574219 410.925781 1430.023438 411.601562 C 1430.476562 412.273438 1430.699219 413.476562 1430.25 414.375 C 1429.648438 415.574219 1427.25 416.550781 1425 417.601562 C 1421.476562 419.25 1414.199219 421.574219 1410.75 422.25 C 1408.726562 422.699219 1407.449219 422.925781 1405.949219 422.699219 C 1404.601562 422.550781 1402.425781 422.175781 1402.125 421.273438 C 1401.75 420.148438 1403.398438 417.375 1405.5 415.949219 C 1409.699219 413.101562 1425.675781 411.226562 1429.648438 411.300781 C 1431 411.375 1431.75 411.449219 1432.351562 412.050781 C 1433.023438 412.574219 1433.398438 413.851562 1433.324219 414.675781 C 1433.324219 415.351562 1432.875 416.023438 1432.351562 416.550781 C 1431.601562 417.226562 1430.550781 417.601562 1429.050781 418.199219 C 1426.050781 419.324219 1417.800781 422.101562 1415.175781 422.25 C 1414.125 422.324219 1413.601562 422.25 1413 421.949219 C 1412.398438 421.574219 1411.800781 420.898438 1411.574219 420.226562 C 1411.351562 419.476562 1411.425781 418.273438 1412.023438 417.375 C 1413.226562 415.875 1418.25 413.699219 1420.125 413.625 C 1421.023438 413.550781 1421.625 413.851562 1422.148438 414.226562 C 1422.675781 414.675781 1423.125 415.425781 1423.273438 416.101562 C 1423.425781 416.699219 1423.273438 417.601562 1422.898438 418.199219 C 1422.601562 418.800781 1422.148438 419.023438 1421.25 419.550781 C 1418.476562 420.898438 1406.023438 424.351562 1403.101562 424.050781 C 1402.125 423.976562 1401.601562 423.675781 1401.226562 423.148438 C 1400.699219 422.550781 1400.25 421.351562 1400.476562 420.523438 C 1400.699219 419.699219 1401.523438 418.800781 1402.875 418.273438 C 1405.5 417.148438 1414.648438 418.800781 1417.125 418.199219 C 1418.101562 417.976562 1418.324219 417.300781 1419 417.226562 C 1419.601562 417.148438 1420.5 417.375 1421.023438 417.75 C 1421.550781 418.125 1422.074219 418.875 1422.226562 419.476562 C 1422.375 420.226562 1422.148438 421.125 1421.773438 422.023438 C 1421.175781 423.226562 1419.976562 424.351562 1418.398438 425.773438 C 1415.851562 428.25 1409.550781 433.875 1407.226562 434.773438 C 1406.324219 435.148438 1405.726562 435.148438 1405.125 434.925781 C 1404.375 434.625 1403.324219 433.800781 1403.101562 432.976562 C 1402.875 432.148438 1403.175781 430.800781 1404.074219 429.824219 C 1405.949219 427.726562 1413.75 425.25 1416.898438 424.351562 C 1418.699219 423.824219 1420.125 423.601562 1421.25 423.75 C 1422.074219 423.824219 1422.75 424.125 1423.199219 424.574219 C 1423.648438 425.175781 1424.101562 426.375 1423.949219 427.199219 C 1423.726562 428.101562 1423.050781 428.851562 1421.773438 429.601562 C 1418.625 431.476562 1405.425781 434.476562 1402.050781 434.175781 C 1400.851562 434.023438 1400.175781 433.574219 1399.726562 433.050781 C 1399.273438 432.523438 1399.125 431.773438 1399.125 431.101562 C 1399.199219 430.5 1399.351562 430.050781 1400.023438 429.300781 C 1401.824219 427.273438 1411.351562 420.675781 1413.898438 420.226562 C 1414.726562 420 1415.25 420.300781 1415.699219 420.601562 C 1416.226562 420.898438 1416.675781 421.5 1416.824219 422.101562 C 1416.976562 422.625 1416.898438 423.375 1416.675781 423.898438 C 1416.375 424.425781 1416.148438 424.648438 1415.324219 425.175781 C 1411.800781 427.5 1391.773438 434.925781 1384.5 438.523438 C 1380.449219 440.550781 1377.226562 443.398438 1375.125 443.851562 C 1374.148438 444.074219 1373.398438 444.074219 1372.800781 443.699219 C 1372.199219 443.324219 1371.675781 442.351562 1371.675781 441.675781 C 1371.675781 440.851562 1372.050781 440.175781 1373.175781 439.273438 C 1378.425781 435 1419.226562 419.25 1428 417.523438 C 1430.625 417.074219 1431.976562 417.074219 1433.324219 417.523438 C 1434.300781 417.976562 1435.125 418.726562 1435.5 419.625 C 1435.949219 420.75 1435.726562 422.476562 1435.425781 423.824219 C 1435.199219 425.101562 1434.75 426.226562 1433.925781 427.726562 C 1432.800781 429.898438 1430.101562 434.25 1428.523438 435.523438 C 1427.773438 436.199219 1427.175781 436.5 1426.425781 436.5 C 1425.75 436.574219 1424.773438 436.425781 1424.25 435.898438 C 1423.574219 435.226562 1422.824219 433.574219 1423.050781 432.375 C 1423.425781 430.648438 1426.125 427.875 1427.925781 426.976562 C 1429.199219 426.226562 1431.074219 425.851562 1432.199219 426.449219 C 1433.398438 427.050781 1434.226562 429.601562 1434.449219 431.324219 C 1434.75 432.976562 1434.300781 435 1433.699219 436.648438 C 1433.101562 438.300781 1432.273438 440.324219 1431 441.300781 C 1429.800781 442.199219 1427.699219 442.726562 1426.273438 442.425781 C 1424.925781 442.199219 1423.574219 441 1422.675781 439.800781 C 1421.773438 438.449219 1421.25 436.5 1421.101562 434.550781 C 1420.949219 432.300781 1421.625 429.601562 1422.300781 427.050781 C 1422.976562 424.273438 1424.550781 420.523438 1425.523438 418.425781 C 1426.125 417.074219 1426.351562 416.175781 1427.175781 415.273438 C 1428.226562 414.300781 1430.175781 412.875 1431.523438 413.023438 C 1432.875 413.175781 1434.375 414.976562 1435.199219 416.25 C 1436.023438 417.449219 1436.324219 419.101562 1436.699219 420.449219 C 1437 421.648438 1437.375 422.699219 1437.375 423.976562 C 1437.449219 425.625 1437.449219 427.800781 1436.699219 429.375 C 1435.875 430.875 1434.226562 432.601562 1432.726562 433.199219 C 1431.375 433.726562 1429.5 433.574219 1428.074219 433.125 C 1426.726562 432.75 1425.226562 432 1424.25 430.949219 C 1423.199219 429.976562 1422.300781 428.476562 1421.851562 427.125 C 1421.476562 425.773438 1421.476562 424.199219 1421.699219 422.773438 C 1421.851562 421.273438 1422.148438 419.476562 1422.898438 418.5 C 1423.5 417.75 1424.550781 417.148438 1425.375 417.148438 C 1426.199219 417.074219 1427.398438 417.75 1427.925781 418.425781 C 1428.375 418.949219 1428.523438 419.476562 1428.523438 420.449219 C 1428.300781 423.375 1423.726562 433.949219 1421.851562 436.875 C 1421.023438 438.148438 1420.648438 439.125 1419.675781 439.273438 C 1418.398438 439.5 1415.175781 437.773438 1414.5 436.425781 C 1413.898438 435.148438 1414.5 433.351562 1415.175781 431.476562 C 1416.226562 428.550781 1418.925781 424.648438 1421.625 421.199219 C 1425 417 1430.773438 409.199219 1434.226562 408.449219 C 1436.023438 408.074219 1437.898438 408.898438 1439.023438 410.398438 C 1441.125 413.25 1440.601562 424.125 1440.75 427.875 C 1440.824219 429.675781 1440.976562 430.648438 1440.675781 431.851562 C 1440.375 432.976562 1439.925781 434.398438 1439.023438 434.925781 C 1437.976562 435.523438 1435.648438 435.449219 1434.75 434.773438 C 1433.925781 434.25 1433.773438 433.273438 1433.476562 431.851562 C 1432.800781 428.175781 1433.324219 415.125 1433.925781 411.898438 C 1434.148438 410.773438 1434.226562 410.324219 1434.75 409.800781 C 1435.351562 409.199219 1436.699219 408.75 1437.523438 408.75 C 1438.273438 408.824219 1439.023438 409.273438 1439.476562 409.800781 C 1440.074219 410.398438 1440.375 411.300781 1440.675781 412.273438 C 1441.050781 413.699219 1441.5 416.398438 1441.425781 417.75 C 1441.351562 418.648438 1441.273438 419.324219 1440.75 419.851562 C 1440.074219 420.449219 1438.273438 421.125 1437.375 420.824219 C 1436.476562 420.523438 1435.273438 418.050781 1435.273438 418.050781 " clip-rule="nonzero"/></clipPath><clipPath id="ea00be7760"><path d="M 0.601562 0.203125 L 69 0.203125 L 69 36.007812 L 0.601562 36.007812 Z M 0.601562 0.203125 " clip-rule="nonzero"/></clipPath><clipPath id="329cd81b06"><path d="M 64.273438 10.050781 C 63 3.75 62.925781 3 63.300781 2.398438 C 63.824219 1.648438 65.550781 0.675781 66.523438 0.75 C 67.425781 0.824219 68.398438 1.351562 68.925781 2.476562 C 70.351562 5.25 70.5 18.226562 68.550781 20.851562 C 67.574219 22.050781 65.398438 22.648438 64.425781 22.050781 C 62.925781 21.226562 62.699219 16.199219 62.324219 13.425781 C 61.949219 10.875 61.050781 6.976562 62.023438 6.148438 C 62.625 5.550781 65.175781 6 65.398438 6.675781 C 65.925781 8.324219 55.050781 16.273438 52.351562 20.25 C 50.625 22.875 50.699219 26.625 49.125 27.449219 C 47.925781 28.050781 45.148438 27.449219 44.851562 26.773438 C 44.625 26.175781 46.125 25.273438 46.800781 23.925781 C 48.148438 21.226562 50.023438 13.425781 51.601562 11.175781 C 52.273438 10.125 52.875 9.449219 53.625 9.226562 C 54.300781 9 55.199219 9.074219 55.800781 9.449219 C 56.476562 9.824219 57.226562 10.726562 57.449219 11.773438 C 57.824219 13.125 56.25 15.824219 56.699219 17.101562 C 57.148438 18.074219 58.726562 19.351562 59.25 19.125 C 59.773438 18.976562 59.925781 17.175781 59.925781 16.050781 C 59.851562 14.773438 59.023438 12 58.800781 12 C 58.574219 12 58.875 15.75 58.5 17.398438 C 58.125 18.824219 57.300781 19.800781 56.925781 21.226562 C 56.476562 22.875 55.949219 26.773438 56.101562 26.851562 C 56.175781 26.851562 56.398438 23.175781 57.148438 22.800781 C 57.824219 22.5 59.851562 23.25 60 23.925781 C 60.226562 24.824219 57.523438 27.898438 56.175781 28.351562 C 55.273438 28.726562 53.925781 28.425781 53.25 27.898438 C 52.5 27.375 51.898438 26.175781 51.976562 25.125 C 52.050781 23.699219 54.300781 22.050781 55.351562 20.175781 C 56.476562 18.148438 58.574219 13.425781 58.273438 13.273438 C 58.125 13.125 57.226562 15.523438 55.351562 16.800781 C 48.898438 21.449219 10.125 35.101562 4.125 35.851562 C 2.851562 36.074219 2.398438 36.074219 1.800781 35.699219 C 1.199219 35.324219 0.675781 34.351562 0.675781 33.675781 C 0.675781 32.925781 0.976562 32.324219 1.648438 31.574219 C 3.226562 29.925781 7.050781 28.273438 11.25 26.175781 C 18.675781 22.425781 38.101562 12.074219 42.898438 12.226562 C 44.25 12.226562 45.074219 12.898438 45.601562 13.5 C 45.898438 13.949219 45.976562 14.773438 45.824219 15.300781 C 45.75 15.898438 45.449219 16.273438 44.851562 16.875 C 43.050781 18.75 34.800781 24.75 32.398438 25.800781 C 31.5 26.101562 31.050781 26.25 30.375 26.101562 C 29.773438 25.949219 29.101562 25.574219 28.726562 25.050781 C 28.273438 24.449219 28.125 23.175781 28.273438 22.425781 C 28.425781 21.824219 28.726562 21.449219 29.550781 20.925781 C 32.175781 19.199219 46.351562 15.898438 49.574219 15.75 C 50.625 15.75 51.074219 15.824219 51.601562 16.199219 C 52.199219 16.5 52.726562 17.175781 52.875 17.851562 C 53.101562 18.449219 53.023438 19.273438 52.726562 19.875 C 52.425781 20.476562 52.125 20.851562 51.226562 21.300781 C 48.75 22.875 36.898438 27.601562 34.125 26.925781 C 33 26.699219 32.324219 25.800781 32.101562 24.976562 C 31.875 24.148438 32.324219 22.949219 33.074219 21.824219 C 34.648438 19.425781 41.175781 15.824219 43.574219 13.5 C 45 12.074219 45.523438 10.351562 46.648438 9.75 C 47.476562 9.300781 48.601562 9.148438 49.351562 9.449219 C 50.175781 9.75 51 10.726562 51.226562 11.476562 C 51.375 12.300781 51.226562 13.425781 50.476562 14.175781 C 49.199219 15.449219 44.625 15.976562 41.550781 16.273438 C 38.25 16.574219 33.226562 16.648438 31.351562 15.898438 C 30.523438 15.601562 30.074219 15.148438 29.773438 14.625 C 29.476562 14.023438 29.25 13.199219 29.476562 12.523438 C 29.625 11.773438 30.074219 11.101562 31.199219 10.425781 C 33.976562 8.625 46.726562 5.023438 49.800781 5.625 C 51 5.851562 51.75 6.601562 52.050781 7.351562 C 52.425781 8.101562 52.5 9.300781 51.898438 10.199219 C 50.925781 11.699219 45.976562 13.949219 44.175781 14.25 C 43.273438 14.398438 42.601562 14.25 42 13.949219 C 41.398438 13.574219 40.726562 12.976562 40.574219 12.226562 C 40.425781 11.324219 40.574219 9.898438 41.550781 8.851562 C 43.800781 6.523438 55.726562 3.601562 58.648438 3.300781 C 59.699219 3.226562 60.226562 3.300781 60.824219 3.601562 C 61.351562 3.898438 61.949219 4.574219 62.175781 5.175781 C 62.398438 5.851562 62.398438 6.75 62.175781 7.351562 C 61.949219 7.949219 61.648438 8.398438 60.75 8.925781 C 57.523438 10.726562 36.675781 15.75 34.648438 13.726562 C 33.898438 12.976562 34.351562 10.949219 35.398438 9.675781 C 37.875 6.75 52.050781 2.25 55.875 2.324219 C 57.375 2.324219 58.425781 2.925781 59.023438 3.601562 C 59.476562 4.125 59.550781 5.023438 59.476562 5.625 C 59.324219 6.300781 58.949219 6.898438 58.425781 7.5 C 57.601562 8.324219 55.800781 9.824219 54.675781 9.898438 C 53.773438 9.898438 52.648438 9.226562 52.125 8.625 C 51.75 8.101562 51.523438 7.425781 51.601562 6.75 C 51.75 6 52.351562 4.800781 53.023438 4.351562 C 53.699219 3.898438 55.050781 3.898438 55.800781 4.199219 C 56.398438 4.351562 56.925781 4.949219 57.226562 5.476562 C 57.523438 6 57.675781 6.75 57.523438 7.351562 C 57.375 8.101562 56.550781 9.226562 55.875 9.601562 C 55.351562 9.898438 54.601562 9.976562 54 9.824219 C 53.398438 9.675781 52.726562 9.375 52.351562 8.851562 C 51.898438 8.25 51.449219 7.050781 51.75 6.148438 C 52.050781 4.949219 54.226562 3.074219 55.199219 2.550781 C 55.726562 2.25 56.101562 2.175781 56.625 2.25 C 57.300781 2.324219 58.574219 2.925781 59.023438 3.601562 C 59.476562 4.273438 59.699219 5.476562 59.25 6.375 C 58.648438 7.574219 56.25 8.550781 54 9.601562 C 50.476562 11.25 43.199219 13.574219 39.75 14.25 C 37.726562 14.699219 36.449219 14.925781 34.949219 14.699219 C 33.601562 14.550781 31.425781 14.175781 31.125 13.273438 C 30.75 12.148438 32.398438 9.375 34.5 7.949219 C 38.699219 5.101562 54.675781 3.226562 58.648438 3.300781 C 60 3.375 60.75 3.449219 61.351562 4.050781 C 62.023438 4.574219 62.398438 5.851562 62.324219 6.675781 C 62.324219 7.351562 61.875 8.023438 61.351562 8.550781 C 60.601562 9.226562 59.550781 9.601562 58.050781 10.199219 C 55.050781 11.324219 46.800781 14.101562 44.175781 14.25 C 43.125 14.324219 42.601562 14.25 42 13.949219 C 41.398438 13.574219 40.800781 12.898438 40.574219 12.226562 C 40.351562 11.476562 40.425781 10.273438 41.023438 9.375 C 42.226562 7.875 47.25 5.699219 49.125 5.625 C 50.023438 5.550781 50.625 5.851562 51.148438 6.226562 C 51.675781 6.675781 52.125 7.425781 52.273438 8.101562 C 52.425781 8.699219 52.273438 9.601562 51.898438 10.199219 C 51.601562 10.800781 51.148438 11.023438 50.25 11.550781 C 47.476562 12.898438 35.023438 16.351562 32.101562 16.050781 C 31.125 15.976562 30.601562 15.675781 30.226562 15.148438 C 29.699219 14.550781 29.25 13.351562 29.476562 12.523438 C 29.699219 11.699219 30.523438 10.800781 31.875 10.273438 C 34.5 9.148438 43.648438 10.800781 46.125 10.199219 C 47.101562 9.976562 47.324219 9.300781 48 9.226562 C 48.601562 9.148438 49.5 9.375 50.023438 9.75 C 50.550781 10.125 51.074219 10.875 51.226562 11.476562 C 51.375 12.226562 51.148438 13.125 50.773438 14.023438 C 50.175781 15.226562 48.976562 16.351562 47.398438 17.773438 C 44.851562 20.25 38.550781 25.875 36.226562 26.773438 C 35.324219 27.148438 34.726562 27.148438 34.125 26.925781 C 33.375 26.625 32.324219 25.800781 32.101562 24.976562 C 31.875 24.148438 32.175781 22.800781 33.074219 21.824219 C 34.949219 19.726562 42.75 17.25 45.898438 16.351562 C 47.699219 15.824219 49.125 15.601562 50.25 15.75 C 51.074219 15.824219 51.75 16.125 52.199219 16.574219 C 52.648438 17.175781 53.101562 18.375 52.949219 19.199219 C 52.726562 20.101562 52.050781 20.851562 50.773438 21.601562 C 47.625 23.476562 34.425781 26.476562 31.050781 26.175781 C 29.851562 26.023438 29.175781 25.574219 28.726562 25.050781 C 28.273438 24.523438 28.125 23.773438 28.125 23.101562 C 28.199219 22.5 28.351562 22.050781 29.023438 21.300781 C 30.824219 19.273438 40.351562 12.675781 42.898438 12.226562 C 43.726562 12 44.25 12.300781 44.699219 12.601562 C 45.226562 12.898438 45.675781 13.5 45.824219 14.101562 C 45.976562 14.625 45.898438 15.375 45.675781 15.898438 C 45.375 16.425781 45.148438 16.648438 44.324219 17.175781 C 40.800781 19.5 20.773438 26.925781 13.5 30.523438 C 9.449219 32.550781 6.226562 35.398438 4.125 35.851562 C 3.148438 36.074219 2.398438 36.074219 1.800781 35.699219 C 1.199219 35.324219 0.675781 34.351562 0.675781 33.675781 C 0.675781 32.851562 1.050781 32.175781 2.175781 31.273438 C 7.425781 27 48.226562 11.25 57 9.523438 C 59.625 9.074219 60.976562 9.074219 62.324219 9.523438 C 63.300781 9.976562 64.125 10.726562 64.5 11.625 C 64.949219 12.75 64.726562 14.476562 64.425781 15.824219 C 64.199219 17.101562 63.75 18.226562 62.925781 19.726562 C 61.800781 21.898438 59.101562 26.25 57.523438 27.523438 C 56.773438 28.199219 56.175781 28.5 55.425781 28.5 C 54.75 28.574219 53.773438 28.425781 53.25 27.898438 C 52.574219 27.226562 51.824219 25.574219 52.050781 24.375 C 52.425781 22.648438 55.125 19.875 56.925781 18.976562 C 58.199219 18.226562 60.074219 17.851562 61.199219 18.449219 C 62.398438 19.050781 63.226562 21.601562 63.449219 23.324219 C 63.75 24.976562 63.300781 27 62.699219 28.648438 C 62.101562 30.300781 61.273438 32.324219 60 33.300781 C 58.800781 34.199219 56.699219 34.726562 55.273438 34.425781 C 53.925781 34.199219 52.574219 33 51.675781 31.800781 C 50.773438 30.449219 50.25 28.5 50.101562 26.550781 C 49.949219 24.300781 50.625 21.601562 51.300781 19.050781 C 51.976562 16.273438 53.550781 12.523438 54.523438 10.425781 C 55.125 9.074219 55.351562 8.175781 56.175781 7.273438 C 57.226562 6.300781 59.175781 4.875 60.523438 5.023438 C 61.875 5.175781 63.375 6.976562 64.199219 8.25 C 65.023438 9.449219 65.324219 11.101562 65.699219 12.449219 C 66 13.648438 66.375 14.699219 66.375 15.976562 C 66.449219 17.625 66.449219 19.800781 65.699219 21.375 C 64.875 22.875 63.226562 24.601562 61.726562 25.199219 C 60.375 25.726562 58.5 25.574219 57.074219 25.125 C 55.726562 24.75 54.226562 24 53.25 22.949219 C 52.199219 21.976562 51.300781 20.476562 50.851562 19.125 C 50.476562 17.773438 50.476562 16.199219 50.699219 14.773438 C 50.851562 13.273438 51.148438 11.476562 51.898438 10.5 C 52.5 9.75 53.550781 9.148438 54.375 9.148438 C 55.199219 9.074219 56.398438 9.75 56.925781 10.425781 C 57.375 10.949219 57.523438 11.476562 57.523438 12.449219 C 57.300781 15.375 52.726562 25.949219 50.851562 28.875 C 50.023438 30.148438 49.648438 31.125 48.675781 31.273438 C 47.398438 31.5 44.175781 29.773438 43.5 28.425781 C 42.898438 27.148438 43.5 25.351562 44.175781 23.476562 C 45.226562 20.550781 47.925781 16.648438 50.625 13.199219 C 54 9 59.773438 1.199219 63.226562 0.449219 C 65.023438 0.0742188 66.898438 0.898438 68.023438 2.398438 C 70.125 5.25 69.601562 16.125 69.75 19.875 C 69.824219 21.675781 69.976562 22.648438 69.675781 23.851562 C 69.375 24.976562 68.925781 26.398438 68.023438 26.925781 C 66.976562 27.523438 64.648438 27.449219 63.75 26.773438 C 62.925781 26.25 62.773438 25.273438 62.476562 23.851562 C 61.800781 20.175781 62.324219 7.125 62.925781 3.898438 C 63.148438 2.773438 63.226562 2.324219 63.75 1.800781 C 64.351562 1.199219 65.699219 0.75 66.523438 0.75 C 67.273438 0.824219 68.023438 1.273438 68.476562 1.800781 C 69.074219 2.398438 69.375 3.300781 69.675781 4.273438 C 70.050781 5.699219 70.5 8.398438 70.425781 9.75 C 70.351562 10.648438 70.273438 11.324219 69.75 11.851562 C 69.074219 12.449219 67.273438 13.125 66.375 12.824219 C 65.476562 12.523438 64.273438 10.050781 64.273438 10.050781 " clip-rule="nonzero"/></clipPath><clipPath id="e491003aef"><rect x="0" width="69" y="0" height="37"/></clipPath><clipPath id="1fc3de9a88"><path d="M 0 406.4375 L 369.644531 406.4375 L 369.644531 649.4375 L 0 649.4375 Z M 0 406.4375 " clip-rule="nonzero"/></clipPath><clipPath id="8a8f80d7f7"><path d="M 0 0.4375 L 369.644531 0.4375 L 369.644531 243.4375 L 0 243.4375 Z M 0 0.4375 " clip-rule="nonzero"/></clipPath><clipPath id="f334d01ca2"><rect x="0" width="370" y="0" height="244"/></clipPath><clipPath id="6d053cdedf"><path d="M 3.050781 400.683594 L 353.320312 400.683594 L 353.320312 643.683594 L 3.050781 643.683594 Z M 3.050781 400.683594 " clip-rule="nonzero"/></clipPath><clipPath id="6479c100e8"><path d="M 0.0507812 0.683594 L 350.320312 0.683594 L 350.320312 243.683594 L 0.0507812 243.683594 Z M 0.0507812 0.683594 " clip-rule="nonzero"/></clipPath><clipPath id="7680e3238e"><rect x="0" width="351" y="0" height="244"/></clipPath><clipPath id="232b88378b"><path d="M 30.421875 396.199219 L 329.503906 396.199219 L 329.503906 589.949219 L 30.421875 589.949219 Z M 30.421875 396.199219 " clip-rule="nonzero"/></clipPath><clipPath id="7d957a5c3d"><path d="M 0.421875 0.199219 L 299.503906 0.199219 L 299.503906 193.949219 L 0.421875 193.949219 Z M 0.421875 0.199219 " clip-rule="nonzero"/></clipPath><clipPath id="b8d9e4be5f"><rect x="0" width="300" y="0" height="194"/></clipPath><clipPath id="aecf49a2f3"><path d="M 57.238281 392.078125 L 299.910156 392.078125 L 299.910156 634.097656 L 57.238281 634.097656 Z M 57.238281 392.078125 " clip-rule="nonzero"/></clipPath><clipPath id="2ae5ce0b2d"><path d="M 0.238281 0.078125 L 242.910156 0.078125 L 242.910156 242.097656 L 0.238281 242.097656 Z M 0.238281 0.078125 " clip-rule="nonzero"/></clipPath><clipPath id="b23f40236d"><rect x="0" width="243" y="0" height="243"/></clipPath><clipPath id="9f44d85f3f"><path d="M 0 382.792969 L 283.300781 382.792969 L 283.300781 632.003906 L 0 632.003906 Z M 0 382.792969 " clip-rule="nonzero"/></clipPath><clipPath id="5b755936eb"><path d="M 139.695312 382.792969 C 60.402344 382.792969 -3.878906 438.578125 -3.878906 507.398438 C -3.878906 576.214844 60.402344 632.003906 139.695312 632.003906 C 218.992188 632.003906 283.269531 576.214844 283.269531 507.398438 C 283.269531 438.578125 218.992188 382.792969 139.695312 382.792969 Z M 139.695312 382.792969 " clip-rule="nonzero"/></clipPath><clipPath id="fb8dfd46e8"><path d="M 0 0.792969 L 283.300781 0.792969 L 283.300781 250.003906 L 0 250.003906 Z M 0 0.792969 " clip-rule="nonzero"/></clipPath><clipPath id="b0bf31c8af"><path d="M 139.695312 0.792969 C 60.402344 0.792969 -3.878906 56.578125 -3.878906 125.398438 C -3.878906 194.214844 60.402344 250.003906 139.695312 250.003906 C 218.992188 250.003906 283.269531 194.214844 283.269531 125.398438 C 283.269531 56.578125 218.992188 0.792969 139.695312 0.792969 Z M 139.695312 0.792969 " clip-rule="nonzero"/></clipPath><clipPath id="6d98d2537b"><rect x="0" width="284" y="0" height="251"/></clipPath><clipPath id="a9a54578d3"><path d="M 66.167969 380.730469 L 353.347656 380.730469 L 353.347656 629.941406 L 66.167969 629.941406 Z M 66.167969 380.730469 " clip-rule="nonzero"/></clipPath><clipPath id="a7357e0901"><path d="M 209.746094 380.730469 C 130.449219 380.730469 66.167969 436.515625 66.167969 505.335938 C 66.167969 574.152344 130.449219 629.941406 209.746094 629.941406 C 289.039062 629.941406 353.320312 574.152344 353.320312 505.335938 C 353.320312 436.515625 289.039062 380.730469 209.746094 380.730469 Z M 209.746094 380.730469 " clip-rule="nonzero"/></clipPath><clipPath id="462b2caf92"><path d="M 0.167969 0.730469 L 287.347656 0.730469 L 287.347656 249.941406 L 0.167969 249.941406 Z M 0.167969 0.730469 " clip-rule="nonzero"/></clipPath><clipPath id="eb730f4031"><path d="M 143.746094 0.730469 C 64.449219 0.730469 0.167969 56.515625 0.167969 125.335938 C 0.167969 194.152344 64.449219 249.941406 143.746094 249.941406 C 223.039062 249.941406 287.320312 194.152344 287.320312 125.335938 C 287.320312 56.515625 223.039062 0.730469 143.746094 0.730469 Z M 143.746094 0.730469 " clip-rule="nonzero"/></clipPath><clipPath id="0daa62f8e1"><rect x="0" width="288" y="0" height="250"/></clipPath><clipPath id="a5fc032f1e"><path d="M 209.746094 404.28125 L 496.925781 404.28125 L 496.925781 653.492188 L 209.746094 653.492188 Z M 209.746094 404.28125 " clip-rule="nonzero"/></clipPath><clipPath id="e3d847b96f"><path d="M 353.320312 404.28125 C 274.023438 404.28125 209.746094 460.070312 209.746094 528.886719 C 209.746094 597.707031 274.023438 653.492188 353.320312 653.492188 C 432.613281 653.492188 496.894531 597.707031 496.894531 528.886719 C 496.894531 460.070312 432.613281 404.28125 353.320312 404.28125 Z M 353.320312 404.28125 " clip-rule="nonzero"/></clipPath><clipPath id="6dfe80ad56"><path d="M 0.746094 0.28125 L 287.925781 0.28125 L 287.925781 249.492188 L 0.746094 249.492188 Z M 0.746094 0.28125 " clip-rule="nonzero"/></clipPath><clipPath id="535e4a525b"><path d="M 144.320312 0.28125 C 65.023438 0.28125 0.746094 56.070312 0.746094 124.886719 C 0.746094 193.707031 65.023438 249.492188 144.320312 249.492188 C 223.613281 249.492188 287.894531 193.707031 287.894531 124.886719 C 287.894531 56.070312 223.613281 0.28125 144.320312 0.28125 Z M 144.320312 0.28125 " clip-rule="nonzero"/></clipPath><clipPath id="b96683db67"><rect x="0" width="288" y="0" height="250"/></clipPath><clipPath id="c2df7cfdbe"><path d="M 85.863281 417.375 L 720 417.375 L 720 666.589844 L 85.863281 666.589844 Z M 85.863281 417.375 " clip-rule="nonzero"/></clipPath><clipPath id="30a58c0ae8"><path d="M 402.933594 417.375 C 227.820312 417.375 85.863281 473.164062 85.863281 541.980469 C 85.863281 610.800781 227.820312 666.589844 402.933594 666.589844 C 578.042969 666.589844 720 610.800781 720 541.980469 C 720 473.164062 578.042969 417.375 402.933594 417.375 Z M 402.933594 417.375 " clip-rule="nonzero"/></clipPath><clipPath id="9f8f38c5fd"><path d="M 0.863281 0.375 L 635 0.375 L 635 249.589844 L 0.863281 249.589844 Z M 0.863281 0.375 " clip-rule="nonzero"/></clipPath><clipPath id="7772a1905b"><path d="M 317.933594 0.375 C 142.820312 0.375 0.863281 56.164062 0.863281 124.980469 C 0.863281 193.800781 142.820312 249.589844 317.933594 249.589844 C 493.042969 249.589844 635 193.800781 635 124.980469 C 635 56.164062 493.042969 0.375 317.933594 0.375 Z M 317.933594 0.375 " clip-rule="nonzero"/></clipPath><clipPath id="0ec0ce7b29"><rect x="0" width="635" y="0" height="250"/></clipPath><clipPath id="7f66af8d5c"><path d="M 467.132812 423.375 L 710.992188 423.375 L 710.992188 663.480469 L 467.132812 663.480469 Z M 467.132812 423.375 " clip-rule="nonzero"/></clipPath><clipPath id="f0d36330a7"><path d="M 588.632812 423.375 C 521.53125 423.375 467.132812 477.125 467.132812 543.429688 C 467.132812 609.730469 521.53125 663.480469 588.632812 663.480469 C 655.738281 663.480469 710.132812 609.730469 710.132812 543.429688 C 710.132812 477.125 655.738281 423.375 588.632812 423.375 Z M 588.632812 423.375 " clip-rule="nonzero"/></clipPath><clipPath id="477c00cec2"><path d="M 0.132812 0.375 L 243.160156 0.375 L 243.160156 240.480469 L 0.132812 240.480469 Z M 0.132812 0.375 " clip-rule="nonzero"/></clipPath><clipPath id="a3f5d72d8c"><path d="M 121.632812 0.375 C 54.53125 0.375 0.132812 54.125 0.132812 120.429688 C 0.132812 186.730469 54.53125 240.480469 121.632812 240.480469 C 188.738281 240.480469 243.132812 186.730469 243.132812 120.429688 C 243.132812 54.125 188.738281 0.375 121.632812 0.375 Z M 121.632812 0.375 " clip-rule="nonzero"/></clipPath><clipPath id="6a73a0ed33"><rect x="0" width="244" y="0" height="241"/></clipPath><clipPath id="be360a9ea5"><path d="M 472.417969 406.425781 L 1107 406.425781 L 1107 655.640625 L 472.417969 655.640625 Z M 472.417969 406.425781 " clip-rule="nonzero"/></clipPath><clipPath id="8a0fb528bc"><path d="M 789.484375 406.425781 C 614.375 406.425781 472.417969 462.214844 472.417969 531.03125 C 472.417969 599.851562 614.375 655.640625 789.484375 655.640625 C 964.597656 655.640625 1106.554688 599.851562 1106.554688 531.03125 C 1106.554688 462.214844 964.597656 406.425781 789.484375 406.425781 Z M 789.484375 406.425781 " clip-rule="nonzero"/></clipPath><clipPath id="e5f735ce52"><path d="M 0.417969 0.425781 L 634.640625 0.425781 L 634.640625 249.640625 L 0.417969 249.640625 Z M 0.417969 0.425781 " clip-rule="nonzero"/></clipPath><clipPath id="7a6ba50f8c"><path d="M 317.484375 0.425781 C 142.375 0.425781 0.417969 56.214844 0.417969 125.03125 C 0.417969 193.851562 142.375 249.640625 317.484375 249.640625 C 492.597656 249.640625 634.554688 193.851562 634.554688 125.03125 C 634.554688 56.214844 492.597656 0.425781 317.484375 0.425781 Z M 317.484375 0.425781 " clip-rule="nonzero"/></clipPath><clipPath id="89167d0095"><rect x="0" width="635" y="0" height="250"/></clipPath><clipPath id="5b5cbbfea7"><path d="M 579.230469 388.480469 L 1213.945312 388.480469 L 1213.945312 637.695312 L 579.230469 637.695312 Z M 579.230469 388.480469 " clip-rule="nonzero"/></clipPath><clipPath id="e3d958d189"><path d="M 896.296875 388.480469 C 721.183594 388.480469 579.230469 444.269531 579.230469 513.089844 C 579.230469 581.90625 721.183594 637.695312 896.296875 637.695312 C 1071.410156 637.695312 1213.367188 581.90625 1213.367188 513.089844 C 1213.367188 444.269531 1071.410156 388.480469 896.296875 388.480469 Z M 896.296875 388.480469 " clip-rule="nonzero"/></clipPath><clipPath id="7093f85055"><path d="M 0.230469 0.480469 L 634 0.480469 L 634 249.695312 L 0.230469 249.695312 Z M 0.230469 0.480469 " clip-rule="nonzero"/></clipPath><clipPath id="3176b53296"><path d="M 317.296875 0.480469 C 142.183594 0.480469 0.230469 56.269531 0.230469 125.089844 C 0.230469 193.90625 142.183594 249.695312 317.296875 249.695312 C 492.410156 249.695312 634.367188 193.90625 634.367188 125.089844 C 634.367188 56.269531 492.410156 0.480469 317.296875 0.480469 Z M 317.296875 0.480469 " clip-rule="nonzero"/></clipPath><clipPath id="20f5d54e79"><rect x="0" width="635" y="0" height="250"/></clipPath><clipPath id="9f75223562"><path d="M 633.136719 394.46875 L 1267.851562 394.46875 L 1267.851562 643.683594 L 633.136719 643.683594 Z M 633.136719 394.46875 " clip-rule="nonzero"/></clipPath><clipPath id="40537ec84d"><path d="M 950.207031 394.46875 C 775.09375 394.46875 633.136719 450.257812 633.136719 519.074219 C 633.136719 587.894531 775.09375 643.683594 950.207031 643.683594 C 1125.316406 643.683594 1267.273438 587.894531 1267.273438 519.074219 C 1267.273438 450.257812 1125.316406 394.46875 950.207031 394.46875 Z M 950.207031 394.46875 " clip-rule="nonzero"/></clipPath><clipPath id="42f10eb858"><path d="M 0.136719 0.46875 L 634 0.46875 L 634 249.683594 L 0.136719 249.683594 Z M 0.136719 0.46875 " clip-rule="nonzero"/></clipPath><clipPath id="7dbe62088d"><path d="M 317.207031 0.46875 C 142.09375 0.46875 0.136719 56.257812 0.136719 125.074219 C 0.136719 193.894531 142.09375 249.683594 317.207031 249.683594 C 492.316406 249.683594 634.273438 193.894531 634.273438 125.074219 C 634.273438 56.257812 492.316406 0.46875 317.207031 0.46875 Z M 317.207031 0.46875 " clip-rule="nonzero"/></clipPath><clipPath id="04e4c35551"><rect x="0" width="635" y="0" height="250"/></clipPath><clipPath id="98d74dfdcf"><path d="M 788.011719 420.992188 L 1422.730469 420.992188 L 1422.730469 670.207031 L 788.011719 670.207031 Z M 788.011719 420.992188 " clip-rule="nonzero"/></clipPath><clipPath id="a1169fc523"><path d="M 1105.082031 420.992188 C 929.96875 420.992188 788.011719 476.78125 788.011719 545.597656 C 788.011719 614.417969 929.96875 670.207031 1105.082031 670.207031 C 1280.195312 670.207031 1422.148438 614.417969 1422.148438 545.597656 C 1422.148438 476.78125 1280.195312 420.992188 1105.082031 420.992188 Z M 1105.082031 420.992188 " clip-rule="nonzero"/></clipPath><clipPath id="195c7c99ef"><path d="M 0.0117188 0.992188 L 634 0.992188 L 634 250.207031 L 0.0117188 250.207031 Z M 0.0117188 0.992188 " clip-rule="nonzero"/></clipPath><clipPath id="f601e99c14"><path d="M 317.082031 0.992188 C 141.96875 0.992188 0.0117188 56.78125 0.0117188 125.597656 C 0.0117188 194.417969 141.96875 250.207031 317.082031 250.207031 C 492.195312 250.207031 634.148438 194.417969 634.148438 125.597656 C 634.148438 56.78125 492.195312 0.992188 317.082031 0.992188 Z M 317.082031 0.992188 " clip-rule="nonzero"/></clipPath><clipPath id="29194faafe"><rect x="0" width="635" y="0" height="251"/></clipPath><clipPath id="ecc665f537"><path d="M 209.746094 423.375 L 844 423.375 L 844 672.589844 L 209.746094 672.589844 Z M 209.746094 423.375 " clip-rule="nonzero"/></clipPath><clipPath id="e72014bf9a"><path d="M 526.8125 423.375 C 351.699219 423.375 209.746094 479.164062 209.746094 547.980469 C 209.746094 616.800781 351.699219 672.589844 526.8125 672.589844 C 701.925781 672.589844 843.878906 616.800781 843.878906 547.980469 C 843.878906 479.164062 701.925781 423.375 526.8125 423.375 Z M 526.8125 423.375 " clip-rule="nonzero"/></clipPath><clipPath id="9d1ba9b669"><path d="M 0.746094 0.375 L 635 0.375 L 635 249.589844 L 0.746094 249.589844 Z M 0.746094 0.375 " clip-rule="nonzero"/></clipPath><clipPath id="a0164f5b22"><path d="M 317.8125 0.375 C 142.699219 0.375 0.746094 56.164062 0.746094 124.980469 C 0.746094 193.800781 142.699219 249.589844 317.8125 249.589844 C 492.925781 249.589844 634.878906 193.800781 634.878906 124.980469 C 634.878906 56.164062 492.925781 0.375 317.8125 0.375 Z M 317.8125 0.375 " clip-rule="nonzero"/></clipPath><clipPath id="7d999ae357"><rect x="0" width="635" y="0" height="250"/></clipPath><clipPath id="cd32917692"><path d="M 18.789062 165.859375 L 633.039062 165.859375 L 633.039062 447 L 18.789062 447 Z M 18.789062 165.859375 " clip-rule="nonzero"/></clipPath></defs><path stroke-linecap="butt" transform="matrix(0.75, 0, 0, 0.75, -4.727623, 379.399278)" fill="none" stroke-linejoin="miter" d="M 1.131622 33.175965 C 162.772255 -4.391746 324.412889 -4.391746 486.048313 33.175965 " stroke="#5170ff" stroke-width="10" stroke-opacity="1" stroke-miterlimit="4"/><path stroke-linecap="butt" transform="matrix(-0.749987, -0.00448448, 0.00448448, -0.749987, 721.554354, 431.31607)" fill="none" stroke-linejoin="miter" d="M 1.140651 33.175617 C 161.606385 -4.393905 322.078032 -4.389873 482.545115 33.177359 " stroke="#5170ff" stroke-width="10" stroke-opacity="1" stroke-miterlimit="4"/><path stroke-linecap="butt" transform="matrix(0.75, 0, 0, 0.75, 719.14461, 381.558164)" fill="none" stroke-linejoin="miter" d="M 1.14052 33.17245 C 161.489486 -4.390052 321.843661 -4.390052 482.192628 33.17245 " stroke="#5170ff" stroke-width="10" stroke-opacity="1" stroke-miterlimit="4"/><path stroke-linecap="butt" transform="matrix(-0.75, 0.000029137, -0.000029137, -0.75, 1448.231885, 431.30599)" fill="none" stroke-linejoin="miter" d="M 1.1256 33.173657 C 164.059359 -4.392931 326.996868 -4.39181 489.932916 33.177022 " stroke="#5170ff" stroke-width="10" stroke-opacity="1" stroke-miterlimit="4"/><g clip-path="url(#124ba7b6de)"><g transform="matrix(1, 0, 0, 1, 0, 430)"><g clip-path="url(#acdda0ec9e)"><g clip-path="url(#289b87301e)"><path fill="#5170ff" d="M -13.410156 0.09375 L 1461.695312 0.09375 L 1461.695312 380 L -13.410156 380 Z M -13.410156 0.09375 " fill-opacity="1" fill-rule="nonzero"/></g></g></g></g><g clip-path="url(#cdd14e463a)"><g clip-path="url(#26c7303c9a)"><g transform="matrix(1, 0, 0, 1, 1298, 417)"><g clip-path="url(#8d2dc11a96)"><g clip-path="url(#c7505a46f4)"><g clip-path="url(#ed376c2ca3)"><rect x="-1614.8" width="2073.6" fill="#5170ff" height="1166.39999" y="-595.199998" fill-opacity="1"/></g></g></g></g></g></g><g clip-path="url(#7489105231)"><g clip-path="url(#820b3b494e)"><g transform="matrix(1, 0, 0, 1, 1434, 414)"><g clip-path="url(#fb7de47a9f)"><g clip-path="url(#229ace5327)"><g clip-path="url(#5775aa12af)"><rect x="-1750.8" width="2073.6" fill="#5170ff" height="1166.39999" y="-592.199998" fill-opacity="1"/></g></g></g></g></g></g><g clip-path="url(#875dfd52b9)"><g clip-path="url(#2990829bf1)"><g transform="matrix(1, 0, 0, 1, 1371, 408)"><g clip-path="url(#e491003aef)"><g clip-path="url(#ea00be7760)"><g clip-path="url(#329cd81b06)"><rect x="-1687.8" width="2073.6" fill="#5170ff" height="1166.39999" y="-586.199998" fill-opacity="1"/></g></g></g></g></g></g><g clip-path="url(#1fc3de9a88)"><g transform="matrix(1, 0, 0, 1, 0, 406)"><g clip-path="url(#f334d01ca2)"><g clip-path="url(#8a8f80d7f7)"><path fill="#5170ff" d="M -32.441406 0.4375 L 370.027344 0.4375 L 370.027344 243.4375 L -32.441406 243.4375 Z M -32.441406 0.4375 " fill-opacity="1" fill-rule="nonzero"/></g></g></g></g><g clip-path="url(#6d053cdedf)"><g transform="matrix(1, 0, 0, 1, 3, 400)"><g clip-path="url(#7680e3238e)"><g clip-path="url(#6479c100e8)"><path fill="#5170ff" d="M 0.0507812 0.683594 L 350.3125 0.683594 L 350.3125 243.683594 L 0.0507812 243.683594 Z M 0.0507812 0.683594 " fill-opacity="1" fill-rule="nonzero"/></g></g></g></g><g clip-path="url(#232b88378b)"><g transform="matrix(1, 0, 0, 1, 30, 396)"><g clip-path="url(#b8d9e4be5f)"><g clip-path="url(#7d957a5c3d)"><path fill="#5170ff" d="M 0.421875 0.199219 L 299.371094 0.199219 L 299.371094 193.949219 L 0.421875 193.949219 Z M 0.421875 0.199219 " fill-opacity="1" fill-rule="nonzero"/></g></g></g></g><g clip-path="url(#aecf49a2f3)"><g transform="matrix(1, 0, 0, 1, 57, 392)"><g clip-path="url(#b23f40236d)"><g clip-path="url(#2ae5ce0b2d)"><path fill="#5170ff" d="M 0.238281 0.078125 L 243.203125 0.078125 L 243.203125 242.097656 L 0.238281 242.097656 Z M 0.238281 0.078125 " fill-opacity="1" fill-rule="nonzero"/></g></g></g></g><g clip-path="url(#9f44d85f3f)"><g clip-path="url(#5b755936eb)"><g transform="matrix(1, 0, 0, 1, 0, 382)"><g clip-path="url(#6d98d2537b)"><g clip-path="url(#fb8dfd46e8)"><g clip-path="url(#b0bf31c8af)"><path fill="#5170ff" d="M -3.878906 0.792969 L 283.300781 0.792969 L 283.300781 250.003906 L -3.878906 250.003906 Z M -3.878906 0.792969 " fill-opacity="1" fill-rule="nonzero"/></g></g></g></g></g></g><g clip-path="url(#a9a54578d3)"><g clip-path="url(#a7357e0901)"><g transform="matrix(1, 0, 0, 1, 66, 380)"><g clip-path="url(#0daa62f8e1)"><g clip-path="url(#462b2caf92)"><g clip-path="url(#eb730f4031)"><path fill="#5170ff" d="M 0.167969 0.730469 L 287.347656 0.730469 L 287.347656 249.941406 L 0.167969 249.941406 Z M 0.167969 0.730469 " fill-opacity="1" fill-rule="nonzero"/></g></g></g></g></g></g><g clip-path="url(#a5fc032f1e)"><g clip-path="url(#e3d847b96f)"><g transform="matrix(1, 0, 0, 1, 209, 404)"><g clip-path="url(#b96683db67)"><g clip-path="url(#6dfe80ad56)"><g clip-path="url(#535e4a525b)"><path fill="#5170ff" d="M 0.746094 0.28125 L 287.925781 0.28125 L 287.925781 249.492188 L 0.746094 249.492188 Z M 0.746094 0.28125 " fill-opacity="1" fill-rule="nonzero"/></g></g></g></g></g></g><g clip-path="url(#c2df7cfdbe)"><g clip-path="url(#30a58c0ae8)"><g transform="matrix(1, 0, 0, 1, 85, 417)"><g clip-path="url(#0ec0ce7b29)"><g clip-path="url(#9f8f38c5fd)"><g clip-path="url(#7772a1905b)"><path fill="#5170ff" d="M 0.863281 0.375 L 634.605469 0.375 L 634.605469 249.589844 L 0.863281 249.589844 Z M 0.863281 0.375 " fill-opacity="1" fill-rule="nonzero"/></g></g></g></g></g></g><g clip-path="url(#7f66af8d5c)"><g clip-path="url(#f0d36330a7)"><g transform="matrix(1, 0, 0, 1, 467, 423)"><g clip-path="url(#6a73a0ed33)"><g clip-path="url(#477c00cec2)"><g clip-path="url(#a3f5d72d8c)"><path fill="#5170ff" d="M 0.132812 0.375 L 243.054688 0.375 L 243.054688 240.480469 L 0.132812 240.480469 Z M 0.132812 0.375 " fill-opacity="1" fill-rule="nonzero"/></g></g></g></g></g></g><g clip-path="url(#be360a9ea5)"><g clip-path="url(#8a0fb528bc)"><g transform="matrix(1, 0, 0, 1, 472, 406)"><g clip-path="url(#89167d0095)"><g clip-path="url(#e5f735ce52)"><g clip-path="url(#7a6ba50f8c)"><path fill="#5170ff" d="M 0.417969 0.425781 L 634.160156 0.425781 L 634.160156 249.640625 L 0.417969 249.640625 Z M 0.417969 0.425781 " fill-opacity="1" fill-rule="nonzero"/></g></g></g></g></g></g><g clip-path="url(#5b5cbbfea7)"><g clip-path="url(#e3d958d189)"><g transform="matrix(1, 0, 0, 1, 579, 388)"><g clip-path="url(#20f5d54e79)"><g clip-path="url(#7093f85055)"><g clip-path="url(#3176b53296)"><path fill="#5170ff" d="M 0.230469 0.480469 L 633.972656 0.480469 L 633.972656 249.695312 L 0.230469 249.695312 Z M 0.230469 0.480469 " fill-opacity="1" fill-rule="nonzero"/></g></g></g></g></g></g><g clip-path="url(#9f75223562)"><g clip-path="url(#40537ec84d)"><g transform="matrix(1, 0, 0, 1, 633, 394)"><g clip-path="url(#04e4c35551)"><g clip-path="url(#42f10eb858)"><g clip-path="url(#7dbe62088d)"><path fill="#5170ff" d="M 0.136719 0.46875 L 633.878906 0.46875 L 633.878906 249.683594 L 0.136719 249.683594 Z M 0.136719 0.46875 " fill-opacity="1" fill-rule="nonzero"/></g></g></g></g></g></g><g clip-path="url(#98d74dfdcf)"><g clip-path="url(#a1169fc523)"><g transform="matrix(1, 0, 0, 1, 788, 420)"><g clip-path="url(#29194faafe)"><g clip-path="url(#195c7c99ef)"><g clip-path="url(#f601e99c14)"><path fill="#5170ff" d="M 0.0117188 0.992188 L 633.757812 0.992188 L 633.757812 250.207031 L 0.0117188 250.207031 Z M 0.0117188 0.992188 " fill-opacity="1" fill-rule="nonzero"/></g></g></g></g></g></g><g clip-path="url(#ecc665f537)"><g clip-path="url(#e72014bf9a)"><g transform="matrix(1, 0, 0, 1, 209, 423)"><g clip-path="url(#7d999ae357)"><g clip-path="url(#9d1ba9b669)"><g clip-path="url(#a0164f5b22)"><path fill="#5170ff" d="M 0.746094 0.375 L 634.488281 0.375 L 634.488281 249.589844 L 0.746094 249.589844 Z M 0.746094 0.375 " fill-opacity="1" fill-rule="nonzero"/></g></g></g></g></g></g><g clip-path="url(#cd32917692)"><path fill="#000000" d="M 133.867188 361.054688 L 21.316406 361.054688 C 19.933594 361.054688 18.820312 359.914062 18.820312 358.53125 L 18.820312 329.21875 C 18.820312 328.207031 19.675781 327.359375 20.679688 327.390625 C 27.082031 327.578125 31.996094 326.578125 35.398438 324.402344 C 78.628906 296.5625 111.046875 254.136719 134.191406 208.011719 C 138.917969 198.578125 141.328125 190.214844 141.410156 182.976562 C 141.464844 177.214844 142.503906 173.398438 144.46875 171.460938 C 149.566406 166.390625 156.089844 164.894531 161.558594 166.472656 C 167.039062 168.050781 171.472656 172.71875 172.355469 179.996094 C 172.84375 184.121094 172.898438 188.113281 172.546875 191.972656 C 172.390625 193.511719 172.855469 195.082031 173.804688 196.316406 C 199.707031 230.019531 228.285156 256.164062 269.546875 272.734375 C 314.535156 290.765625 370.941406 283.742188 411.238281 256.011719 C 435.054688 239.628906 455.703125 220.078125 473.160156 197.335938 C 474.039062 196.195312 474.585938 194.847656 474.714844 193.421875 C 475.1875 188.738281 474.847656 183.636719 475.398438 179.148438 C 475.816406 175.714844 476.757812 172.640625 478.925781 170.347656 C 481.089844 168.054688 484.492188 166.535156 489.867188 166.257812 C 495.292969 165.976562 498.921875 167.246094 501.371094 169.46875 C 503.820312 171.691406 505.089844 174.875 505.773438 178.460938 C 506.667969 183.175781 506.550781 188.589844 506.816406 193.378906 C 506.921875 195.164062 507.421875 196.925781 508.3125 198.523438 C 516.203125 212.722656 525.300781 228.097656 535.605469 244.65625 C 552.394531 271.660156 573.152344 295.585938 597.90625 316.453125 C 602.890625 320.652344 608.421875 322.171875 614.082031 322.734375 C 619.796875 323.300781 625.644531 322.894531 631.222656 323.257812 C 632.300781 323.320312 633.164062 324.246094 633.164062 325.324219 L 633.164062 359.550781 C 633.164062 360.316406 632.535156 360.917969 631.769531 360.917969 L 515.621094 360.917969 C 514.433594 360.917969 513.484375 361.941406 513.554688 363.128906 L 519.003906 444.515625 C 519.09375 445.773438 518.109375 446.816406 516.882812 446.816406 L 465.75 446.816406 C 465.191406 446.816406 464.746094 446.335938 464.78125 445.777344 L 470.5 361.519531 C 470.519531 361.21875 470.289062 360.972656 469.988281 360.972656 L 178.855469 360.972656 C 178.601562 360.972656 178.382812 361.1875 178.398438 361.4375 L 183.957031 444.136719 C 184.019531 444.988281 183.332031 445.714844 182.480469 445.714844 L 131.183594 445.714844 C 130.332031 445.714844 129.640625 444.960938 129.707031 444.113281 L 135.210938 362.484375 L 135.210938 362.476562 C 135.277344 361.695312 134.648438 361.054688 133.867188 361.054688 Z M 507.539062 216.242188 L 511.328125 325.074219 C 511.347656 325.59375 511.785156 325.992188 512.28125 325.96875 L 536.359375 325.136719 C 536.859375 325.117188 537.257812 324.722656 537.257812 324.226562 L 537.257812 270.511719 C 537.257812 266.695312 536.195312 262.933594 534.183594 259.675781 Z M 303.082031 326.238281 C 303.386719 326.238281 303.621094 326.003906 303.621094 325.703125 L 303.621094 291.261719 C 303.621094 291.011719 303.4375 290.800781 303.1875 290.746094 L 278.042969 285.539062 C 277.699219 285.492188 277.394531 285.742188 277.394531 286.082031 L 277.394531 325.703125 C 277.394531 326.003906 277.628906 326.238281 277.929688 326.238281 Z M 270.523438 326.183594 C 270.832031 326.183594 271.085938 325.929688 271.085938 325.621094 L 271.085938 284.175781 C 271.085938 283.957031 270.960938 283.761719 270.761719 283.667969 L 270.757812 283.667969 L 245.660156 271.773438 L 245.652344 271.773438 C 245.292969 271.59375 244.859375 271.867188 244.859375 272.285156 L 244.859375 325.621094 C 244.859375 325.929688 245.117188 326.183594 245.425781 326.183594 Z M 545.578125 322.285156 C 545.632812 322.355469 545.808594 322.570312 546.035156 322.800781 C 546.265625 323.027344 546.484375 323.203125 546.550781 323.257812 C 558.117188 323.070312 573.90625 322.992188 593.921875 323.015625 C 594.113281 323.015625 594.199219 322.78125 594.054688 322.664062 L 594.046875 322.664062 C 585.316406 315.566406 576.910156 308.019531 568.875 299.960938 C 560.84375 291.929688 553.296875 283.550781 546.230469 274.792969 C 546.164062 274.714844 546.074219 274.691406 546 274.71875 C 545.925781 274.742188 545.875 274.816406 545.875 274.914062 C 545.875 294.933594 545.792969 310.726562 545.578125 322.285156 Z M 434.449219 325.78125 C 434.808594 325.78125 435.09375 325.496094 435.09375 325.136719 L 435.09375 251.132812 C 435.09375 250.621094 434.523438 250.320312 434.085938 250.605469 L 408.292969 267.996094 C 408.121094 268.109375 408.011719 268.320312 408.011719 268.527344 L 408.011719 325.136719 C 408.011719 325.496094 408.292969 325.78125 408.65625 325.78125 Z M 367.476562 325.996094 C 367.785156 325.996094 368.042969 325.742188 368.042969 325.433594 L 368.042969 286.78125 C 368.042969 286.4375 367.714844 286.164062 367.375 286.238281 L 367.367188 286.238281 L 342.621094 290.960938 C 342.367188 291.019531 342.164062 291.257812 342.164062 291.53125 L 342.164062 325.433594 C 342.164062 325.742188 342.421875 325.996094 342.730469 325.996094 Z M 400.089844 325.941406 C 400.425781 325.941406 400.710938 325.660156 400.710938 325.324219 L 400.710938 273.386719 C 400.710938 272.933594 400.238281 272.636719 399.828125 272.824219 L 374.976562 284.390625 C 374.753906 284.503906 374.617188 284.710938 374.617188 284.953125 L 374.617188 325.324219 C 374.617188 325.660156 374.898438 325.941406 375.234375 325.941406 Z M 99.609375 277.308594 C 83.570312 297.222656 66.671875 313.53125 48.855469 326.242188 C 48.660156 326.382812 48.769531 326.695312 49.019531 326.695312 L 100.3125 326.695312 C 100.679688 326.695312 100.984375 326.386719 100.984375 326.023438 L 100.984375 277.8125 C 100.984375 277.074219 100.070312 276.734375 99.609375 277.308594 Z M 335.859375 292.144531 C 335.859375 291.707031 335.496094 291.34375 335.050781 291.335938 L 310.625 291.296875 C 310.183594 291.292969 309.820312 291.65625 309.820312 292.101562 L 309.765625 325.277344 C 309.765625 325.714844 310.128906 326.078125 310.570312 326.082031 L 334.996094 326.125 C 335.441406 326.128906 335.804688 325.769531 335.800781 325.324219 Z M 474.390625 325.996094 C 474.699219 325.996094 474.957031 325.742188 474.957031 325.433594 L 474.957031 211.675781 C 474.957031 211.164062 474.355469 210.910156 473.992188 211.273438 L 441.566406 243.699219 C 441.457031 243.808594 441.402344 243.957031 441.402344 244.101562 L 441.402344 325.433594 C 441.402344 325.742188 441.65625 325.996094 441.964844 325.996094 Z M 172.414062 208.34375 L 172.414062 326.078125 C 172.414062 326.652344 172.882812 327.125 173.460938 327.125 L 199.980469 327.125 C 200.742188 327.125 201.347656 326.515625 201.347656 325.753906 L 201.347656 244.179688 C 201.347656 241.4375 200.175781 238.824219 198.136719 236.972656 C 188 227.855469 179.417969 218.3125 172.414062 208.34375 Z M 139.664062 216.703125 C 131.226562 233.734375 121.589844 249.328125 110.703125 263.429688 C 109.125 265.5 108.257812 268.050781 108.257812 270.648438 L 108.257812 326.050781 C 108.257812 326.4375 108.570312 326.75 108.957031 326.75 L 138.296875 326.75 C 139.0625 326.75 139.664062 326.117188 139.664062 325.351562 Z M 237.425781 326.453125 C 237.757812 326.453125 238.015625 326.195312 238.015625 325.863281 L 238.015625 268.417969 C 238.015625 268.214844 237.929688 268.03125 237.761719 267.917969 L 237.753906 267.914062 L 208.523438 247.246094 C 208.136719 246.96875 207.605469 247.246094 207.605469 247.722656 L 207.605469 325.863281 C 207.605469 326.195312 207.863281 326.453125 208.195312 326.453125 Z M 237.425781 326.453125 " fill-opacity="1" fill-rule="nonzero"/></g></svg>