<svg xmlns="http://www.w3.org/2000/svg" xmlns:xlink="http://www.w3.org/1999/xlink" width="333" zoomAndPan="magnify" viewBox="0 0 249.75 249.749984" height="333" preserveAspectRatio="xMidYMid meet" version="1.0"><defs><clipPath id="92db796aa3"><path d="M 0 0 L 249.230469 0 L 249.230469 249.230469 L 0 249.230469 Z M 0 0 " clip-rule="nonzero"/></clipPath><clipPath id="2993edf4fa"><path d="M 124.617188 0 C 55.792969 0 0 55.792969 0 124.617188 C 0 193.4375 55.792969 249.230469 124.617188 249.230469 C 193.4375 249.230469 249.230469 193.4375 249.230469 124.617188 C 249.230469 55.792969 193.4375 0 124.617188 0 Z M 124.617188 0 " clip-rule="nonzero"/></clipPath><clipPath id="954a04b49a"><path d="M 0 0 L 249.230469 0 L 249.230469 249.230469 L 0 249.230469 Z M 0 0 " clip-rule="nonzero"/></clipPath><clipPath id="125e913c22"><path d="M 124.617188 0 C 55.792969 0 0 55.792969 0 124.617188 C 0 193.4375 55.792969 249.230469 124.617188 249.230469 C 193.4375 249.230469 249.230469 193.4375 249.230469 124.617188 C 249.230469 55.792969 193.4375 0 124.617188 0 Z M 124.617188 0 " clip-rule="nonzero"/></clipPath><clipPath id="08667dc434"><rect x="0" width="250" y="0" height="250"/></clipPath><clipPath id="5ab2ce44f9"><path d="M 23.835938 78.507812 L 225.382812 78.507812 L 225.382812 170.667969 L 23.835938 170.667969 Z M 23.835938 78.507812 " clip-rule="nonzero"/></clipPath></defs><g clip-path="url(#92db796aa3)"><g clip-path="url(#2993edf4fa)"><g transform="matrix(1, 0, 0, 1, 0, -0.000000000000040364)"><g clip-path="url(#08667dc434)"><g clip-path="url(#954a04b49a)"><g clip-path="url(#125e913c22)"><path fill="#5170ff" d="M 0 0 L 249.230469 0 L 249.230469 249.230469 L 0 249.230469 Z M 0 0 " fill-opacity="1" fill-rule="nonzero"/></g></g></g></g></g></g><g clip-path="url(#5ab2ce44f9)"><path fill="#ffffff" d="M 61.589844 142.542969 L 24.664062 142.542969 C 24.210938 142.542969 23.84375 142.171875 23.84375 141.714844 L 23.84375 132.101562 C 23.84375 131.769531 24.125 131.488281 24.457031 131.5 C 26.554688 131.5625 28.167969 131.234375 29.285156 130.519531 C 43.46875 121.386719 54.105469 107.464844 61.699219 92.332031 C 63.25 89.238281 64.039062 86.496094 64.066406 84.121094 C 64.082031 82.230469 64.425781 80.976562 65.070312 80.339844 C 66.742188 78.679688 68.882812 78.1875 70.675781 78.703125 C 72.476562 79.222656 73.929688 80.753906 74.21875 83.140625 C 74.378906 84.496094 74.394531 85.804688 74.28125 87.070312 C 74.230469 87.574219 74.382812 88.089844 74.695312 88.496094 C 83.191406 99.554688 92.570312 108.132812 106.105469 113.566406 C 120.867188 119.484375 139.371094 117.179688 152.59375 108.082031 C 160.40625 102.707031 167.183594 96.292969 172.910156 88.832031 C 173.199219 88.457031 173.378906 88.015625 173.417969 87.546875 C 173.574219 86.011719 173.464844 84.335938 173.644531 82.863281 C 173.78125 81.738281 174.089844 80.726562 174.800781 79.976562 C 175.511719 79.222656 176.628906 78.726562 178.390625 78.632812 C 180.171875 78.542969 181.363281 78.957031 182.164062 79.6875 C 182.96875 80.417969 183.386719 81.460938 183.609375 82.636719 C 183.902344 84.183594 183.863281 85.960938 183.953125 87.53125 C 183.988281 88.117188 184.152344 88.695312 184.441406 89.21875 C 187.03125 93.878906 190.015625 98.921875 193.398438 104.355469 C 198.90625 113.214844 205.714844 121.066406 213.835938 127.910156 C 215.472656 129.289062 217.289062 129.789062 219.144531 129.972656 C 221.019531 130.15625 222.9375 130.027344 224.769531 130.144531 C 225.121094 130.164062 225.40625 130.46875 225.40625 130.824219 L 225.40625 142.050781 C 225.40625 142.300781 225.199219 142.5 224.949219 142.5 L 186.839844 142.5 C 186.449219 142.5 186.140625 142.835938 186.164062 143.226562 L 187.949219 169.925781 C 187.980469 170.339844 187.65625 170.683594 187.253906 170.683594 L 170.476562 170.683594 C 170.296875 170.683594 170.148438 170.523438 170.160156 170.339844 L 172.035156 142.699219 C 172.042969 142.597656 171.96875 142.519531 171.871094 142.519531 L 76.351562 142.519531 C 76.269531 142.519531 76.195312 142.589844 76.203125 142.671875 L 78.023438 169.804688 C 78.046875 170.082031 77.820312 170.320312 77.539062 170.320312 L 60.710938 170.320312 C 60.429688 170.320312 60.207031 170.074219 60.226562 169.796875 L 62.03125 143.015625 L 62.03125 143.011719 C 62.054688 142.753906 61.847656 142.542969 61.589844 142.542969 Z M 184.1875 95.03125 L 185.433594 130.738281 C 185.4375 130.910156 185.582031 131.042969 185.746094 131.035156 L 193.644531 130.761719 C 193.808594 130.753906 193.9375 130.625 193.9375 130.460938 L 193.9375 112.839844 C 193.9375 111.585938 193.589844 110.351562 192.929688 109.28125 Z M 117.109375 131.121094 C 117.207031 131.121094 117.285156 131.046875 117.285156 130.945312 L 117.285156 119.648438 C 117.285156 119.566406 117.226562 119.496094 117.144531 119.476562 L 108.894531 117.769531 C 108.78125 117.753906 108.679688 117.835938 108.679688 117.945312 L 108.679688 130.945312 C 108.679688 131.046875 108.757812 131.121094 108.855469 131.121094 Z M 106.425781 131.105469 C 106.527344 131.105469 106.613281 131.019531 106.613281 130.917969 L 106.613281 117.320312 C 106.613281 117.25 106.570312 117.183594 106.503906 117.15625 L 98.269531 113.253906 L 98.265625 113.253906 C 98.148438 113.191406 98.007812 113.285156 98.007812 113.421875 L 98.007812 130.917969 C 98.007812 131.019531 98.089844 131.105469 98.191406 131.105469 Z M 196.667969 129.824219 C 196.6875 129.847656 196.746094 129.917969 196.820312 129.992188 C 196.894531 130.070312 196.96875 130.125 196.988281 130.144531 C 200.78125 130.082031 205.964844 130.054688 212.53125 130.066406 C 212.59375 130.066406 212.621094 129.988281 212.574219 129.949219 L 212.570312 129.949219 C 209.707031 127.621094 206.949219 125.144531 204.3125 122.5 C 201.679688 119.867188 199.203125 117.117188 196.882812 114.242188 C 196.863281 114.21875 196.832031 114.210938 196.808594 114.21875 C 196.785156 114.226562 196.765625 114.25 196.765625 114.285156 C 196.765625 120.851562 196.738281 126.03125 196.667969 129.824219 Z M 160.210938 130.972656 C 160.328125 130.972656 160.421875 130.878906 160.421875 130.761719 L 160.421875 106.480469 C 160.421875 106.3125 160.234375 106.214844 160.089844 106.308594 L 151.628906 112.015625 C 151.570312 112.050781 151.535156 112.121094 151.535156 112.1875 L 151.535156 130.761719 C 151.535156 130.878906 151.628906 130.972656 151.746094 130.972656 Z M 138.238281 131.042969 C 138.335938 131.042969 138.421875 130.960938 138.421875 130.859375 L 138.421875 118.175781 C 138.421875 118.0625 138.316406 117.972656 138.203125 118 L 138.199219 118 L 130.082031 119.546875 C 129.996094 119.566406 129.933594 119.644531 129.933594 119.734375 L 129.933594 130.859375 C 129.933594 130.960938 130.015625 131.042969 130.117188 131.042969 Z M 148.9375 131.023438 C 149.046875 131.023438 149.140625 130.933594 149.140625 130.824219 L 149.140625 113.78125 C 149.140625 113.632812 148.984375 113.535156 148.851562 113.597656 L 140.695312 117.390625 C 140.625 117.429688 140.578125 117.496094 140.578125 117.578125 L 140.578125 130.824219 C 140.578125 130.933594 140.671875 131.023438 140.78125 131.023438 Z M 50.351562 115.070312 C 45.089844 121.601562 39.542969 126.953125 33.699219 131.121094 C 33.636719 131.167969 33.671875 131.273438 33.753906 131.273438 L 50.582031 131.273438 C 50.703125 131.273438 50.804688 131.171875 50.804688 131.050781 L 50.804688 115.234375 C 50.804688 114.992188 50.503906 114.878906 50.351562 115.070312 Z M 127.863281 119.9375 C 127.863281 119.792969 127.742188 119.671875 127.597656 119.671875 L 119.582031 119.660156 C 119.4375 119.65625 119.320312 119.777344 119.320312 119.921875 L 119.300781 130.808594 C 119.300781 130.949219 119.421875 131.070312 119.566406 131.070312 L 127.578125 131.085938 C 127.726562 131.085938 127.84375 130.96875 127.84375 130.820312 Z M 173.3125 131.042969 C 173.414062 131.042969 173.5 130.960938 173.5 130.859375 L 173.5 93.535156 C 173.5 93.367188 173.300781 93.285156 173.183594 93.402344 L 162.542969 104.042969 C 162.507812 104.078125 162.492188 104.125 162.492188 104.171875 L 162.492188 130.859375 C 162.492188 130.960938 162.574219 131.042969 162.675781 131.042969 Z M 74.238281 92.441406 L 74.238281 131.070312 C 74.238281 131.257812 74.390625 131.414062 74.582031 131.414062 L 83.28125 131.414062 C 83.53125 131.414062 83.730469 131.214844 83.730469 130.964844 L 83.730469 104.199219 C 83.730469 103.300781 83.347656 102.441406 82.675781 101.835938 C 79.351562 98.84375 76.535156 95.710938 74.238281 92.441406 Z M 63.492188 95.183594 C 60.726562 100.773438 57.5625 105.890625 53.992188 110.515625 C 53.472656 111.195312 53.191406 112.03125 53.191406 112.882812 L 53.191406 131.058594 C 53.191406 131.1875 53.292969 131.289062 53.417969 131.289062 L 63.042969 131.289062 C 63.296875 131.289062 63.492188 131.082031 63.492188 130.832031 Z M 95.566406 131.191406 C 95.675781 131.191406 95.761719 131.109375 95.761719 131 L 95.761719 112.152344 C 95.761719 112.085938 95.734375 112.023438 95.679688 111.988281 L 95.675781 111.988281 L 86.085938 105.207031 C 85.957031 105.113281 85.785156 105.207031 85.785156 105.363281 L 85.785156 131 C 85.785156 131.109375 85.867188 131.191406 85.976562 131.191406 Z M 95.566406 131.191406 " fill-opacity="1" fill-rule="nonzero"/></g></svg>